<?xml version="1.0" standalone="no"?>
<!DOCTYPE svg PUBLIC "-//W3C//DTD SVG 1.1//EN" "http://www.w3.org/Graphics/SVG/1.1/DTD/svg11.dtd" >
<svg xmlns="http://www.w3.org/2000/svg" width="100%" height="100%">
<metadata>
Created by FontXChange 20100429 at Sun Nov  2 16:20:43 2014
 By Hugh Francis
 
</metadata>
<defs>
<font id="LydianMTStd" horiz-adv-x="479" >
  <font-face 
    font-family="Lydian MT Std"
    font-weight="500"
    font-stretch="normal"
    units-per-em="1000"
    panose-1="2 11 6 2 6 2 1 2 2 3"
    ascent="724"
    descent="-276"
    x-height="465"
    cap-height="714"
    bbox="-162 -252 1183 930"
    underline-thickness="50"
    underline-position="-50"
    stemh="20"
    stemv="68"
    unicode-range="U+0020-FB02"
  />
<missing-glyph horiz-adv-x="500" 
d="M12 0v665h475v-665h-475zM88 618l162 -243l161 243h-323zM60 575v-484c0 -1 161 242 161 242zM440 575l-162 -242l162 -243v485zM411 48l-161 242l-162 -242h323z" />
    <glyph glyph-name="fi" unicode="fi" horiz-adv-x="458" 
d="M181 458l122 -4v16h12c29 0 59 3 86 2l-3 -472h-95v411h-122v-195c0 -70 1 -142 2 -216h-105c2 127 3 251 3 370v41c-16 2 -40 1 -61 1l28 45l31 1c1 89 24 151 90 202c49 38 91 60 113 60c8 0 19 -3 25 -5l-45 -81c-15 1 -39 5 -71 4c-8 -10 -10 -27 -10 -46v-134z
M273 598l79 82l73 -39l-75 -78z" />
    <glyph glyph-name="fl" unicode="fl" horiz-adv-x="458" 
d="M306 712h98v-712h-104l5 411h-124v-411h-104v410c-18 1 -40 2 -58 2l28 43h30c2 113 38 160 103 211c40 31 75 51 102 51c8 0 19 -3 24 -5zM306 454l2 172c-36 6 -75 10 -117 10c-9 -16 -10 -28 -10 -50v-129z" />
    <glyph glyph-name=".notdef" horiz-adv-x="500" 
d="M12 0v665h475v-665h-475zM88 618l162 -243l161 243h-323zM60 575v-484c0 -1 161 242 161 242zM440 575l-162 -242l162 -243v485zM411 48l-161 242l-162 -242h323z" />
    <glyph glyph-name="space" unicode=" " horiz-adv-x="250" 
 />
    <glyph glyph-name="exclam" unicode="!" horiz-adv-x="292" 
d="M75 47c23 22 49 49 70 76c28 -25 52 -50 74 -66c-19 -16 -44 -45 -70 -77c-24 27 -50 49 -74 67zM164 166l-45 -9c-2 157 -3 329 -18 516c32 5 69 13 93 20z" />
    <glyph glyph-name="quotedbl" unicode="&#x22;" horiz-adv-x="354" 
d="M124 462h-54l-24 137v117h100v-117zM285 462h-53l-24 137v117h100v-117z" />
    <glyph glyph-name="numbersign" unicode="#" horiz-adv-x="667" 
d="M43 415v60h159l42 197h60l-42 -197h205l42 197h60l-42 -197h96v-60h-108l-38 -181h146v-60h-158l-41 -196h-60l42 196h-207l-40 -196h-61l42 196h-97v60h109l38 181h-147zM456 415h-207l-37 -181h206z" />
    <glyph glyph-name="dollar" unicode="$" horiz-adv-x="552" 
d="M249 688v53l42 8v-59c7 3 16 7 30 7c34 0 83 -22 129 -69l-71 -82c-22 28 -53 47 -88 54v-178c88 -33 168 -68 168 -154c0 -48 -42 -139 -109 -204c-25 -24 -37 -27 -59 -28v-77l-42 -9v87c-8 -2 -21 -5 -32 -5c-44 0 -80 27 -120 67l61 86c22 -21 55 -38 91 -53v173
c-91 42 -154 88 -154 164c0 56 37 117 103 187c14 15 26 28 51 32zM249 437v163c-55 -1 -79 -13 -79 -62c0 -50 29 -76 79 -101zM291 290v-158c62 3 95 14 95 49c0 41 -30 84 -95 109z" />
    <glyph glyph-name="percent" unicode="%" horiz-adv-x="854" 
d="M528 348l99 80c10 1 17 2 27 2c90 0 145 -74 145 -181c0 -161 -110 -264 -175 -264c-80 0 -140 85 -140 190c0 53 15 120 44 173zM697 55c23 44 34 92 34 144c0 176 -117 185 -147 162c-22 -41 -32 -89 -32 -137c0 -97 48 -172 118 -172c8 0 21 2 27 3zM106 644l99 80
c10 1 17 2 27 2c90 0 145 -74 145 -181c0 -161 -110 -264 -175 -264c-80 0 -140 86 -140 191c0 54 16 119 44 172zM276 351c23 44 33 92 33 144c0 176 -117 185 -146 162c-22 -42 -33 -89 -33 -136c0 -96 48 -173 118 -173c8 0 22 2 28 3zM195 -13l413 739h46l-413 -739h-46
z" />
    <glyph glyph-name="ampersand" unicode="&#x26;" horiz-adv-x="521" 
d="M138 262c0 -89 82 -178 193 -178c19 0 40 3 57 12c1 4 3 12 3 18c0 49 -53 104 -115 104h-68l52 77h245l-45 -74l-7 -1c-7 0 -17 1 -25 6c9 -13 20 -31 20 -60c0 -70 -72 -180 -191 -180c-116 0 -206 85 -206 194c0 81 53 165 154 220c-80 27 -114 74 -114 125
c0 85 101 200 231 200c47 0 79 -13 111 -39l-71 -92c-35 26 -73 48 -131 48c-17 0 -32 -3 -48 -9c-2 -7 -5 -21 -5 -29c0 -39 30 -77 87 -101c51 -22 104 -27 157 -32c-19 -32 -37 -64 -60 -92c-15 2 -35 5 -55 5c-88 0 -169 -50 -169 -122z" />
    <glyph glyph-name="quoteright" unicode="&#x2019;" horiz-adv-x="260" 
d="M99 468l-15 11c25 28 39 58 39 83c0 31 -23 49 -61 82l63 83c46 -27 70 -61 70 -93c0 -42 -33 -102 -96 -166z" />
    <glyph glyph-name="parenleft" unicode="(" horiz-adv-x="260" 
d="M240 -225l-49 -24c-86 150 -137 301 -137 483c0 193 52 351 142 498l46 -24c-62 -133 -108 -279 -108 -467c0 -180 40 -327 106 -466z" />
    <glyph glyph-name="parenright" unicode=")" horiz-adv-x="260" 
d="M18 708l46 24c90 -148 142 -305 142 -498c0 -182 -51 -333 -137 -483l-49 24c67 140 106 288 106 466c0 188 -46 334 -108 467z" />
    <glyph glyph-name="asterisk" unicode="*" horiz-adv-x="552" 
d="M258 616l-5 114h48l-4 -116l99 61l23 -42l-102 -53l102 -55l-25 -41l-96 62l5 -120h-50l5 119l-101 -62l-25 44l106 53l-106 56l26 42z" />
    <glyph glyph-name="plus" unicode="+" horiz-adv-x="667" 
d="M67 291v64h233v234h64v-234h235v-64h-235v-232h-64v232h-233z" />
    <glyph glyph-name="comma" unicode="," horiz-adv-x="260" 
d="M89 -106l-15 12c28 32 45 61 45 85c0 30 -23 52 -54 81l69 78c45 -27 63 -65 63 -91c0 -38 -38 -104 -108 -165z" />
    <glyph glyph-name="hyphen" unicode="-" horiz-adv-x="260" 
d="M41 192l42 90h143l-42 -90h-143z" />
    <glyph glyph-name="period" unicode="." horiz-adv-x="260" 
d="M133 120l72 -69c-22 -17 -46 -42 -71 -69c-25 27 -57 55 -73 66c16 12 44 39 72 72z" />
    <glyph glyph-name="slash" unicode="/" horiz-adv-x="531" 
d="M57 -18l350 714h67l-350 -714h-67z" />
    <glyph glyph-name="zero" unicode="0" horiz-adv-x="552" 
d="M284 727c153 0 255 -125 255 -318c0 -221 -127 -423 -286 -423c-146 0 -236 124 -236 320c0 184 66 273 155 356c46 43 79 65 112 65zM393 93c30 66 49 137 49 236c0 192 -96 301 -215 301c-27 0 -37 -4 -52 -11c-45 -74 -67 -165 -67 -249c0 -176 97 -289 229 -289
c26 0 43 7 56 12z" />
    <glyph glyph-name="one" unicode="1" horiz-adv-x="552" 
d="M223 701l113 30c-7 -169 -7 -320 -7 -453c0 -80 1 -173 6 -279c-18 -2 -37 -2 -51 -2c-20 0 -44 1 -63 1c4 138 7 275 7 408c0 159 -3 259 -5 295z" />
    <glyph glyph-name="two" unicode="2" horiz-adv-x="552" 
d="M71 606l-9 8l80 87c22 12 50 28 104 28c124 0 218 -105 218 -237c0 -134 -75 -304 -224 -402l233 -2l-30 -90c-17 2 -81 3 -187 3c-65 0 -132 0 -198 -1l26 87c69 25 138 42 178 73c49 38 105 148 105 263c0 130 -79 214 -193 214c-40 0 -76 -10 -103 -31z" />
    <glyph glyph-name="three" unicode="3" horiz-adv-x="552" 
d="M103 323l-6 6l87 86c13 3 29 6 44 6c21 0 45 -5 66 -13c13 32 26 68 26 113c0 78 -47 129 -125 129c-38 0 -69 -9 -97 -28l-7 8l95 85c20 5 44 13 76 13c95 0 171 -60 171 -154c0 -74 -41 -121 -105 -178c82 -40 124 -112 124 -188c0 -77 -33 -109 -70 -142
c-28 -24 -60 -51 -103 -75c-13 -3 -26 -5 -43 -5c-82 0 -129 34 -166 85l85 78c44 -52 91 -80 150 -80c36 0 53 20 53 64c0 96 -74 196 -202 196c-20 0 -40 -4 -53 -6z" />
    <glyph glyph-name="four" unicode="4" horiz-adv-x="552" 
d="M302 241h-277l278 468l95 26v-424h86l-23 -70h-61l3 -241h-107zM108 311h193v128c0 79 0 123 1 202z" />
    <glyph glyph-name="five" unicode="5" horiz-adv-x="552" 
d="M108 347v367h319l-15 -89h-253l-2 -185c37 14 76 25 124 25c113 0 189 -77 189 -183c0 -108 -68 -168 -147 -246c-28 -27 -72 -47 -121 -47c-54 0 -87 16 -121 42l69 96c46 -24 92 -37 127 -37c65 0 106 41 106 114c0 99 -77 168 -169 168c-34 0 -82 -10 -106 -25z" />
    <glyph glyph-name="six" unicode="6" horiz-adv-x="552" 
d="M500 646l-66 -99c-64 47 -119 77 -176 77c-75 0 -86 -86 -108 -279l90 86c25 24 51 34 88 34c106 0 179 -75 179 -205c0 -87 -38 -144 -134 -230c-35 -32 -54 -44 -108 -44c-134 0 -205 104 -205 300c0 143 34 254 93 320c79 87 126 118 176 118c58 0 119 -25 171 -78z
M159 314c6 -155 74 -231 160 -231c24 0 48 6 70 16c20 23 31 45 31 96c0 100 -59 170 -149 170c-55 0 -86 -23 -112 -51z" />
    <glyph glyph-name="seven" unicode="7" horiz-adv-x="552" 
d="M72 621l22 91h342l-196 -724h-63l170 633h-275z" />
    <glyph glyph-name="eight" unicode="8" horiz-adv-x="552" 
d="M470 222c0 -79 -54 -126 -129 -201c-25 -25 -56 -36 -93 -36c-99 0 -167 65 -167 161c0 75 39 114 108 174c-69 41 -102 102 -102 175c0 67 29 101 74 146c54 53 90 85 145 85c90 0 158 -60 158 -153c0 -82 -45 -131 -130 -190c92 -28 136 -84 136 -161zM311 399
c32 30 50 60 50 111c0 80 -44 121 -127 121c-48 0 -68 -15 -68 -64c0 -82 54 -131 145 -168zM217 307c-31 -26 -45 -66 -45 -103c0 -74 54 -122 153 -122c43 0 54 14 54 63c0 89 -43 108 -162 162z" />
    <glyph glyph-name="nine" unicode="9" horiz-adv-x="552" 
d="M61 64l63 96c61 -50 127 -72 181 -72c60 0 82 87 102 280c-79 -61 -96 -123 -190 -123c-104 0 -171 82 -171 203c0 108 43 148 119 212c52 44 84 66 127 66c128 0 197 -102 197 -307c0 -272 -83 -306 -144 -373c-32 -35 -58 -60 -115 -60c-69 0 -121 23 -169 78zM396 402
c-15 149 -78 226 -169 226c-72 0 -97 -34 -97 -109c0 -104 56 -171 151 -171c61 0 90 21 115 54z" />
    <glyph glyph-name="colon" unicode=":" horiz-adv-x="260" 
d="M133 124l72 -69c-22 -18 -46 -43 -71 -69c-25 27 -57 54 -73 66c16 11 44 39 72 72zM63 393c18 20 46 42 70 69c19 -11 37 -42 69 -66l-68 -70c-23 20 -45 47 -71 67z" />
    <glyph glyph-name="semicolon" unicode=";" horiz-adv-x="260" 
d="M61 397c19 15 50 44 71 68l69 -71c-22 -19 -46 -43 -68 -67c-18 12 -41 40 -72 70zM88 -105l-15 11c28 31 46 60 46 85c0 30 -24 52 -54 81l70 81c39 -29 58 -60 58 -93c0 -43 -34 -105 -105 -165z" />
    <glyph glyph-name="less" unicode="&#x3c;" horiz-adv-x="667" 
d="M598 141v-69l-530 223v58l530 223v-70l-444 -182z" />
    <glyph glyph-name="equal" unicode="=" horiz-adv-x="667" 
d="M68 408v64h530v-64h-530zM68 179v64h530v-64h-530z" />
    <glyph glyph-name="greater" unicode="&#x3e;" horiz-adv-x="667" 
d="M68 506v70l530 -224v-57l-530 -223v69l444 182z" />
    <glyph glyph-name="question" unicode="?" horiz-adv-x="406" 
d="M32 577l-13 15l80 81c29 16 63 23 99 23c99 0 169 -72 169 -161c0 -56 -34 -118 -88 -166c-49 -44 -72 -89 -72 -127c0 -16 3 -35 8 -46c-44 -15 -79 -28 -97 -38c-1 8 -2 17 -2 24c0 55 28 84 75 154c36 53 73 101 73 148c0 72 -49 134 -123 134c-35 0 -73 -13 -109 -41
zM101 52c14 8 40 35 76 73c20 -23 47 -46 73 -71c-15 -10 -42 -36 -73 -72c-11 14 -40 40 -76 70z" />
    <glyph glyph-name="at" unicode="@" horiz-adv-x="1010" 
d="M494 528c58 0 111 -31 147 -90l16 76h88l-70 -328c-7 -34 -15 -62 -15 -77c0 -16 15 -31 36 -31c53 0 187 104 187 270c0 177 -149 308 -350 308c-239 0 -407 -183 -407 -421c0 -235 155 -374 423 -374c161 0 281 59 342 147h88c-39 -81 -143 -167 -267 -201
c-51 -14 -106 -20 -164 -20c-315 0 -494 174 -494 440c0 132 46 257 127 350c87 101 205 150 356 150c257 0 418 -177 418 -373c0 -205 -156 -358 -291 -358c-81 0 -93 39 -97 82c-44 -51 -99 -82 -148 -82c-101 0 -179 92 -179 222c0 148 119 310 254 310zM331 210
c0 -87 46 -140 107 -140c78 0 175 107 175 243c0 90 -47 141 -114 141c-98 0 -168 -136 -168 -244z" />
    <glyph glyph-name="A" unicode="A" horiz-adv-x="625" 
d="M246 634l-27 60c34 13 85 19 111 31c98 -267 194 -505 280 -717c-31 -6 -71 -10 -115 -22l-86 249h-237l-75 -237l-77 -6c47 123 97 269 156 433c25 71 52 140 70 209zM381 299l-100 256l-87 -256h187z" />
    <glyph glyph-name="B" unicode="B" horiz-adv-x="521" 
d="M504 196c0 -107 -104 -204 -260 -204c-24 0 -87 3 -184 5c6 170 10 362 10 569c0 53 -1 102 -3 147h244c112 0 179 -79 179 -163c0 -68 -44 -133 -137 -180c103 -32 151 -98 151 -174zM236 392h14c19 0 40 -4 60 -9c49 31 72 76 72 135c0 89 -57 136 -148 136
c-15 0 -35 -2 -50 -3l-3 -308zM181 326l-3 -271c41 -15 85 -23 127 -23c57 32 84 93 84 148c0 81 -72 150 -208 146z" />
    <glyph glyph-name="C" unicode="C" horiz-adv-x="594" 
d="M581 129l13 -20c-32 -32 -66 -55 -101 -77c-51 -32 -85 -51 -139 -51c-176 0 -320 141 -320 346c0 259 249 404 372 404c66 0 121 -21 173 -53l-75 -86c-47 28 -94 43 -164 43c-66 0 -114 -10 -151 -49c-37 -38 -64 -115 -64 -201c0 -181 128 -306 300 -306
c58 0 114 16 156 50z" />
    <glyph glyph-name="D" unicode="D" horiz-adv-x="667" 
d="M264 -3l-204 4c5 113 4 230 4 350c0 110 0 231 -3 363l210 3c235 3 371 -128 371 -317c0 -198 -156 -407 -378 -403zM180 654c-4 -30 -5 -130 -5 -297c0 -104 2 -198 5 -281c39 -7 79 -11 115 -11c82 0 163 30 193 59c33 32 57 107 57 184c0 205 -128 347 -325 347
c-12 0 -29 0 -40 -1z" />
    <glyph glyph-name="E" unicode="E" horiz-adv-x="448" 
d="M425 69l-33 -74c-71 1 -184 3 -332 3c4 157 5 329 5 513c0 66 -1 132 -2 200h356l-36 -69l-205 4l-4 -249h240l-34 -69c-32 2 -68 2 -100 2c-38 0 -76 0 -106 -1c-1 -11 -1 -27 -1 -37c0 -55 4 -131 5 -224c45 -3 90 -4 133 -4c35 0 74 2 114 5z" />
    <glyph glyph-name="F" unicode="F" horiz-adv-x="448" 
d="M184 0l-116 -5c1 109 2 215 2 321c0 197 -2 329 -4 396h366l-36 -69l-215 4v-250l233 -3l-33 -66c-39 1 -80 1 -119 1c-26 0 -55 0 -81 -1c-1 -19 -2 -41 -2 -57c0 -137 3 -229 5 -271z" />
    <glyph glyph-name="G" unicode="G" horiz-adv-x="625" 
d="M582 388v-295c-93 -71 -174 -109 -251 -109c-150 0 -305 121 -305 345c0 159 73 264 230 356c40 23 77 42 137 42c72 0 134 -23 193 -63l-72 -85c-49 37 -101 59 -184 59c-66 0 -119 -15 -150 -44c-36 -33 -67 -119 -67 -207c0 -194 146 -316 299 -316c25 0 46 5 63 8
l3 243h-161l68 68z" />
    <glyph glyph-name="H" unicode="H" horiz-adv-x="625" 
d="M169 0l-120 -5c6 136 7 273 7 407c0 70 1 174 -4 311l112 3v-316c42 -2 124 -5 243 -5c17 0 39 1 57 2l-4 316c18 1 39 1 55 1h62c-4 -145 -4 -295 -4 -448c0 -92 -1 -182 4 -268l-119 -3l4 330c-71 1 -143 3 -215 3c-27 0 -57 -1 -85 -3c4 -152 1 -262 7 -325z" />
    <glyph glyph-name="I" unicode="I" horiz-adv-x="219" 
d="M56 714h111c-1 -81 -1 -165 -1 -251c0 -154 0 -310 2 -465c-38 -3 -75 2 -116 -4c4 150 6 306 6 469c0 82 -1 167 -2 251z" />
    <glyph glyph-name="J" unicode="J" horiz-adv-x="365" 
d="M1 43l72 74c40 -43 77 -63 93 -63c36 0 31 130 31 338c0 176 -1 282 -4 317l112 2v-547c0 -61 -63 -99 -139 -150c-24 -16 -43 -30 -66 -30c-38 0 -68 23 -99 59z" />
    <glyph glyph-name="K" unicode="K" horiz-adv-x="552" 
d="M176 -1h-9c-24 0 -64 -3 -111 -8c6 134 7 268 7 400c0 78 1 185 -4 321c41 2 81 2 116 5v-357c132 170 221 287 263 352c28 2 59 3 86 5l-258 -331l270 -345l-110 -55c-150 203 -236 313 -251 327v-42c0 -101 -3 -193 1 -272z" />
    <glyph glyph-name="L" unicode="L" horiz-adv-x="448" 
d="M402 -5l-334 3c0 71 1 143 1 214c0 196 0 365 -4 505c33 1 73 2 113 5c4 -366 -1 -587 5 -655c40 -2 84 -3 128 -3c47 0 88 0 116 2z" />
    <glyph glyph-name="M" unicode="M" horiz-adv-x="781" 
d="M93 682l-10 29l118 6l184 -571c73 186 139 376 202 567l118 5v-46c0 -112 9 -261 18 -448c3 -52 5 -127 15 -224l-116 -8c-6 224 -17 413 -26 566c-55 -139 -125 -330 -202 -558l-78 -5l-174 550c-14 -99 -26 -282 -44 -547l-68 -7c17 147 33 378 63 691z" />
    <glyph glyph-name="N" unicode="N" horiz-adv-x="625" 
d="M70 624l-46 60l108 39l369 -526v513c18 2 40 3 56 3h9v-42c0 -88 -4 -219 -4 -388c0 -115 1 -207 11 -276l-63 -20l-207 303l-176 252v-32c0 -232 0 -400 5 -510l-70 -5c4 225 6 432 8 629z" />
    <glyph glyph-name="O" unicode="O" horiz-adv-x="698" 
d="M376 727c169 0 293 -139 293 -350c0 -112 -31 -193 -107 -272c-76 -80 -167 -121 -245 -121c-71 0 -152 34 -204 87c-60 61 -88 144 -88 251c0 135 41 233 139 314c73 61 152 91 212 91zM529 119c28 52 46 104 46 187c0 200 -101 330 -269 330c-52 0 -89 -10 -127 -31
c-46 -66 -67 -128 -67 -216c0 -202 146 -315 283 -315c54 0 97 15 134 45z" />
    <glyph glyph-name="P" unicode="P" horiz-adv-x="521" 
d="M176 -4h-117c4 77 6 230 6 459c0 89 0 176 -1 259c6 0 20 -1 26 -1c60 0 121 7 175 7c153 0 233 -69 233 -179c0 -79 -41 -144 -118 -196c-99 -68 -115 -65 -160 -65h-44v-284zM176 652v-36c0 -91 0 -179 -2 -261c29 -8 56 -8 80 -8c50 0 76 9 95 16c28 32 41 68 41 126
c0 109 -60 164 -186 164c-11 0 -17 -1 -28 -1z" />
    <glyph glyph-name="Q" unicode="Q" horiz-adv-x="698" 
d="M587 -16l-89 67c-41 -26 -86 -66 -177 -66c-166 0 -300 136 -300 341c0 155 60 261 186 344c56 37 109 58 174 58c165 0 294 -155 294 -351c0 -101 -31 -190 -95 -256l93 -64zM234 134c55 -41 113 -58 161 -58c19 0 38 3 53 5c-71 42 -105 78 -149 78
c-22 0 -49 -8 -65 -25zM544 143c22 47 34 90 34 159c0 208 -107 336 -279 336c-50 0 -83 -10 -119 -29c-42 -64 -68 -127 -68 -210c0 -107 37 -186 104 -252c63 43 114 79 162 79c54 0 107 -43 166 -83z" />
    <glyph glyph-name="R" unicode="R" horiz-adv-x="521" 
d="M62 -9v167c0 217 -2 339 -5 556c98 3 168 9 208 9c133 0 211 -62 211 -167c0 -106 -68 -162 -190 -203c144 -194 228 -298 237 -308l-99 -59l-252 339c2 -110 3 -220 5 -327c-37 -1 -79 -3 -115 -7zM173 351l84 53c21 -13 38 -14 53 -15c42 27 62 63 62 119
c0 83 -53 156 -156 156c-13 0 -31 0 -43 -1v-312z" />
    <glyph glyph-name="S" unicode="S" horiz-adv-x="448" 
d="M41 87l96 63c30 -55 69 -89 130 -89c10 0 24 2 33 3c16 29 24 58 24 96c0 60 -28 100 -64 116c-48 21 -95 45 -140 69c-37 20 -69 79 -69 142c0 124 109 239 225 239c61 0 106 -31 141 -88l-91 -61c-34 50 -79 75 -133 75c-16 0 -28 -4 -37 -7c-18 -27 -26 -59 -26 -85
c0 -86 63 -112 201 -183c58 -30 80 -80 80 -148c0 -151 -130 -247 -230 -247c-59 0 -115 37 -140 105z" />
    <glyph glyph-name="T" unicode="T" horiz-adv-x="521" 
d="M17 648l47 67c107 -2 231 -3 371 -3c26 0 55 1 81 2l-51 -67l-149 3c-1 -17 -1 -38 -1 -55c0 -329 3 -532 4 -595c-41 0 -83 -3 -117 -6l4 654h-189z" />
    <glyph glyph-name="U" unicode="U" horiz-adv-x="625" 
d="M53 217v493c30 0 72 3 114 7c-1 -63 -2 -127 -2 -190c0 -198 1 -312 6 -342c13 -77 67 -117 157 -117c51 0 81 12 110 39c17 64 18 125 18 191c0 57 -2 195 -4 413c36 1 75 3 112 5c-2 -125 -3 -252 -3 -377c0 -188 2 -303 6 -340c-37 -1 -76 -2 -114 -4c1 29 2 55 2 69
v14c-112 -95 -151 -93 -192 -93c-139 0 -210 93 -210 232z" />
    <glyph glyph-name="V" unicode="V" horiz-adv-x="625" 
d="M336 111l198 597c19 1 44 3 71 6c-35 -110 -93 -265 -165 -470c-32 -93 -64 -172 -79 -244c-36 1 -75 -5 -106 -8c-27 111 -58 204 -84 284c-45 139 -92 282 -149 429c19 1 62 7 120 16c22 -77 86 -289 194 -610z" />
    <glyph glyph-name="W" unicode="W" horiz-adv-x="885" 
d="M527 -5l-85 280c-34 -105 -71 -194 -88 -271c-3 0 -5 1 -8 1c-18 0 -53 -4 -93 -10c-47 161 -116 402 -228 719l118 15c38 -130 96 -329 187 -594l85 232l-121 348c42 8 83 5 114 13l64 -210l65 199c23 4 54 1 74 5l-112 -289l98 -296l196 578l69 7
c-7 -24 -68 -192 -176 -505c-8 -23 -36 -90 -63 -213c-34 -1 -68 -5 -96 -9z" />
    <glyph glyph-name="X" unicode="X" horiz-adv-x="552" 
d="M227 338l-192 375c46 0 88 5 126 9c20 -45 65 -140 132 -276l144 267c5 0 9 -1 14 -1c21 0 45 5 60 5h7l-194 -333l196 -384c-50 -2 -92 -7 -125 -11l-136 286l-146 -274l-88 -3c45 71 114 182 202 340z" />
    <glyph glyph-name="Y" unicode="Y" horiz-adv-x="521" 
d="M210 291l-188 414c27 1 77 9 118 19l153 -356c24 44 75 160 144 346h6c17 0 41 2 61 4l-181 -425c-1 -20 -1 -43 -1 -62c0 -73 0 -150 3 -230l-121 -7c4 123 4 222 6 297z" />
    <glyph glyph-name="Z" unicode="Z" horiz-adv-x="521" 
d="M45 618l30 95l402 -7l-316 -617h329l-23 -96c-90 3 -209 5 -353 5c-34 0 -54 -1 -88 -1c92 168 203 373 322 621h-303z" />
    <glyph glyph-name="bracketleft" unicode="[" horiz-adv-x="260" 
d="M231 -237h-182c2 127 2 252 2 373c0 221 1 414 -4 580h152l34 -47h-107c-6 -95 -7 -195 -7 -298c0 -190 2 -379 7 -564h73z" />
    <glyph glyph-name="backslash" unicode="\" horiz-adv-x="531" 
d="M57 696h67l351 -714h-67z" />
    <glyph glyph-name="bracketright" unicode="]" horiz-adv-x="260" 
d="M62 716h152c-5 -165 -4 -358 -4 -580c0 -122 0 -247 2 -373h-182l32 44h73c5 185 7 374 7 564c0 103 -1 203 -7 298h-107z" />
    <glyph glyph-name="asciicircum" unicode="^" horiz-adv-x="469" 
d="M234 616l-130 -291h-78l173 391h71l173 -391h-79z" />
    <glyph glyph-name="underscore" unicode="_" horiz-adv-x="500" 
d="M-6 -125v50h512v-50h-512z" />
    <glyph glyph-name="quoteleft" unicode="&#x2018;" horiz-adv-x="260" 
d="M189 559l-68 -89c-39 23 -61 52 -61 92c0 54 39 105 102 165l13 -14c-23 -24 -39 -48 -39 -76c0 -31 17 -60 53 -78z" />
    <glyph glyph-name="a" unicode="a" horiz-adv-x="448" 
d="M59 365l-12 13l87 92c30 8 61 12 91 12c63 0 119 -24 145 -56c20 -24 27 -60 27 -101v-325c-25 -5 -64 -2 -104 -5c2 18 0 37 3 55l-121 -64c-4 -1 -15 -2 -19 -2c-49 0 -121 45 -121 130c0 94 90 166 202 166c19 0 42 -3 60 -5v16c0 71 -14 117 -121 117
c-43 0 -87 -14 -117 -43zM297 77v133c-28 11 -55 19 -99 19c-18 0 -35 0 -60 -10c-10 -13 -16 -27 -16 -48c0 -57 47 -107 106 -107c22 0 47 5 69 13z" />
    <glyph glyph-name="b" unicode="b" 
d="M53 20l4 695h8c28 0 59 0 89 1v-305l132 64c112 -11 166 -91 166 -196c0 -68 -20 -135 -59 -197l-156 -96c-6 -1 -18 -3 -26 -3c-30 0 -86 12 -158 37zM156 281l-3 -200c57 -21 105 -34 142 -33c36 39 55 102 55 176c0 112 -48 180 -116 180c-12 0 -27 -3 -36 -5
c-29 -34 -41 -82 -42 -118z" />
    <glyph glyph-name="c" unicode="c" horiz-adv-x="406" 
d="M387 74l8 -13l-91 -58c-24 -16 -46 -19 -69 -19c-114 0 -205 85 -205 225c0 103 56 191 81 205l110 59c14 7 25 9 38 9c68 0 109 -40 134 -110l-89 -47c-24 61 -70 89 -109 89c-15 0 -26 -5 -34 -9c-21 -36 -34 -84 -34 -137c0 -47 5 -87 28 -126c31 -53 91 -84 158 -84
c36 0 58 9 74 16z" />
    <glyph glyph-name="d" unicode="d" 
d="M329 48l-119 -64c-116 3 -183 90 -183 206c0 87 45 176 80 212c32 33 114 75 167 75c20 0 41 -7 59 -10v244c18 2 40 2 57 2c13 0 31 0 43 -1c-1 -197 -3 -431 -6 -712h-102c1 16 1 28 4 48zM330 191l4 189c-32 21 -88 38 -129 38c-15 0 -23 -2 -32 -5
c-29 -52 -44 -125 -44 -184c0 -119 56 -177 125 -177c14 0 28 3 36 5c26 37 39 72 40 134z" />
    <glyph glyph-name="e" unicode="e" horiz-adv-x="406" 
d="M396 303v-24l-100 -48l-170 2c9 -112 93 -178 184 -178c28 0 58 5 83 17l7 -15l-124 -69c-14 -8 -25 -7 -41 -7c-127 0 -204 90 -204 228c0 85 33 178 77 203c79 44 107 66 146 66c72 0 142 -63 142 -175zM122 279h173c-1 90 -45 132 -107 132c-15 0 -27 -3 -35 -6
c-20 -39 -31 -88 -31 -118v-8z" />
    <glyph glyph-name="f" unicode="f" horiz-adv-x="260" 
d="M47 457l31 1c1 89 24 151 90 202c49 38 91 60 113 60c8 0 19 -3 25 -5l-45 -81c-15 1 -39 5 -71 4c-8 -10 -10 -27 -10 -46v-134h84l-24 -46h-60v-196c0 -70 1 -142 2 -216h-105c2 127 3 251 3 370v41c-16 2 -40 1 -61 1z" />
    <glyph glyph-name="g" unicode="g" 
d="M142 117c-4 -8 -11 -20 -11 -33c0 -26 30 -37 83 -37c27 0 61 5 95 5c95 0 137 -45 137 -104c0 -83 -109 -191 -246 -191c-102 0 -152 67 -152 117c0 31 25 44 84 96c-39 4 -76 18 -76 36c0 13 31 79 69 120c-46 34 -68 80 -68 136c0 89 48 114 83 140
c53 39 90 70 150 70c41 0 105 -3 185 -4l-71 -51c24 -31 36 -64 36 -101c0 -128 -167 -212 -237 -212c-20 0 -41 4 -61 13zM320 178c18 25 26 58 26 90c0 89 -64 141 -128 141c-54 0 -70 -59 -70 -104c0 -80 51 -137 125 -137c16 0 31 3 47 10zM359 -142c2 11 4 24 4 35
c0 67 -36 84 -126 84c-69 0 -98 -9 -98 -61c0 -54 50 -85 116 -85c37 0 80 9 104 27z" />
    <glyph glyph-name="h" unicode="h" 
d="M156 0h-103c4 165 6 274 6 324c0 236 0 366 -6 396c4 0 7 1 11 1c27 0 63 -2 97 -3l-7 -313l123 69c12 1 19 2 31 2c48 0 93 -25 113 -62c11 -20 13 -53 13 -91v-323h-100v297c0 69 -33 105 -103 105c-18 0 -30 -5 -39 -8c-24 -32 -36 -78 -36 -113v-281z" />
    <glyph glyph-name="i" unicode="i" horiz-adv-x="219" 
d="M34 598l79 82l72 -39l-74 -78zM63 0v470h12c25 0 56 3 87 2l-3 -472h-96z" />
    <glyph glyph-name="j" unicode="j" horiz-adv-x="219" 
d="M62 440v27h100v-483c0 -127 -53 -163 -156 -221l-8 16c43 19 60 53 60 114c1 171 4 353 4 547zM33 598l79 82l72 -39l-74 -78z" />
    <glyph glyph-name="k" unicode="k" horiz-adv-x="469" 
d="M64 555v160h100v-470l195 220l85 5l-189 -195l210 -244l-97 -45l-204 241v-226h-104c3 196 4 380 4 554z" />
    <glyph glyph-name="l" unicode="l" horiz-adv-x="219" 
d="M161 0h-103c3 195 6 389 6 580c0 45 -1 91 -2 135h99v-715z" />
    <glyph glyph-name="m" unicode="m" horiz-adv-x="698" 
d="M154 469v-67l117 69c6 1 18 3 25 3c39 0 77 -23 99 -73l103 73c13 1 19 2 32 2c88 0 122 -53 122 -156v-320h-100v320c0 45 -33 82 -83 82c-13 0 -27 -3 -36 -5c-20 -34 -30 -72 -30 -113l2 -284h-102v311c0 58 -41 90 -80 90c-15 0 -25 -5 -32 -8
c-25 -35 -37 -78 -36 -124l3 -269h-104c2 184 3 306 3 363c0 36 -1 73 -3 106h100z" />
    <glyph glyph-name="n" unicode="n" 
d="M154 469v-67c42 27 81 55 127 76h15c87 0 137 -44 137 -136v-342h-100v311c0 60 -38 90 -102 90c-19 0 -30 -4 -40 -8c-25 -35 -37 -78 -36 -124l3 -269h-104c1 151 3 266 3 343c0 39 -1 82 -3 126h100z" />
    <glyph glyph-name="o" unicode="o" 
d="M403 93l-114 -93c-20 -10 -43 -17 -69 -17c-117 0 -191 90 -191 213c0 77 27 130 51 182l116 92c16 8 36 15 71 15c118 0 186 -88 186 -194c0 -54 -15 -127 -50 -198zM339 81c13 35 23 91 23 141c0 120 -59 189 -145 189c-33 0 -47 -8 -61 -18c-24 -38 -36 -81 -36 -132
c0 -126 67 -192 165 -192c26 0 42 7 54 12z" />
    <glyph glyph-name="p" unicode="p" 
d="M55 -246v710c13 0 34 -1 47 -1c19 0 42 0 57 2v-54l113 63c115 -3 178 -96 178 -208c0 -93 -42 -183 -91 -222c-43 -34 -98 -63 -131 -63c-20 0 -47 5 -73 9v-236h-100zM155 215v-139c45 -24 98 -36 124 -36c14 0 22 3 31 7c24 43 36 109 36 179c0 144 -86 192 -145 177
c-33 -32 -46 -91 -46 -188z" />
    <glyph glyph-name="q" unicode="q" 
d="M333 44l-124 -63c-120 16 -180 83 -180 202c0 76 33 171 73 211c38 39 130 79 161 79c23 0 52 -11 83 -18l87 16v-714l-105 -2zM333 217v163c-51 26 -95 37 -122 37c-16 0 -28 -2 -40 -9c-27 -52 -40 -109 -40 -169c0 -128 66 -184 146 -184c3 0 13 1 16 1
c32 28 40 75 40 161z" />
    <glyph glyph-name="r" unicode="r" horiz-adv-x="333" 
d="M168 0h-105c5 264 6 401 6 401c0 21 0 45 -1 66h99v-65c50 45 86 72 111 72c21 0 57 -40 71 -81c-36 -23 -69 -44 -93 -64c-7 31 -28 56 -51 64c-27 -29 -39 -78 -39 -124z" />
    <glyph glyph-name="s" unicode="s" horiz-adv-x="333" 
d="M23 91l87 41c25 -57 53 -87 96 -92c16 12 24 38 24 61c0 36 -26 62 -82 80c-78 25 -118 70 -118 137c0 34 14 64 26 77c10 11 56 46 127 77c68 -2 101 -26 136 -102l-85 -42c-21 46 -44 82 -90 82c-7 0 -19 -2 -24 -3c-7 -14 -12 -29 -12 -49c0 -30 17 -50 38 -59
c121 -55 168 -76 168 -157c0 -49 -28 -92 -58 -109c-63 -35 -86 -52 -102 -52c-39 0 -113 32 -131 110z" />
    <glyph glyph-name="t" unicode="t" horiz-adv-x="302" 
d="M3 410l52 51h18l3 90l93 32l4 -122h123l-53 -51h-70c-1 -46 -1 -94 -1 -138c0 -157 -8 -216 52 -216c21 0 43 8 62 13l7 -13l-93 -64c-12 -8 -29 -10 -45 -10c-53 0 -80 25 -80 72v356h-72z" />
    <glyph glyph-name="u" unicode="u" 
d="M330 0v2c0 6 -1 21 -1 29c0 9 1 24 3 35l-128 -74c-6 0 -10 -1 -16 -1c-87 0 -136 49 -136 120v361h100v-306c0 -66 35 -98 107 -98c19 0 33 2 44 20c11 19 24 68 24 131v252c10 0 16 1 26 1c26 0 54 0 78 -2c-2 -88 -3 -178 -3 -266c0 -90 0 -160 2 -204h-100z" />
    <glyph glyph-name="v" unicode="v" horiz-adv-x="448" 
d="M189 -10l-168 468c40 5 76 12 97 20l131 -383l129 368l60 4l-156 -417c-1 -4 -3 -10 -3 -15c0 -13 6 -26 9 -34z" />
    <glyph glyph-name="w" unicode="w" horiz-adv-x="625" 
d="M223 -2h-92l-121 468l103 13c41 -174 67 -298 92 -373l79 311c-1 18 -6 37 -13 51c33 2 69 4 105 8l90 -371l93 365h63l-138 -472c-34 0 -66 -3 -90 0l-78 326z" />
    <glyph glyph-name="x" unicode="x" horiz-adv-x="448" 
d="M182 210l-169 246l103 26l124 -193l131 179l71 3l-171 -225l168 -239l-113 -19l-115 179l-120 -169l-76 -4z" />
    <glyph glyph-name="y" unicode="y" 
d="M226 -14l-197 479l106 14c56 -152 105 -272 142 -361l125 346l67 7c-74 -182 -166 -415 -270 -705l-76 -8c22 43 58 121 103 228z" />
    <glyph glyph-name="z" unicode="z" horiz-adv-x="406" 
d="M54 385l29 77l304 3l-252 -388h64c114 0 185 3 195 4l-23 -81h-353l260 387c-18 1 -38 1 -53 1c-57 0 -115 -1 -171 -3z" />
    <glyph glyph-name="braceleft" unicode="{" horiz-adv-x="333" 
d="M28 207v79c108 3 102 102 102 252c0 87 21 141 73 165c29 14 56 13 81 13h27v-77h-15c-66 0 -84 -14 -84 -101v-71c0 -134 -25 -183 -103 -220c84 -35 103 -104 103 -221v-71c0 -87 18 -101 84 -101h15v-77h-27c-25 0 -52 -1 -81 13c-52 24 -73 78 -73 165
c0 150 6 249 -102 252z" />
    <glyph glyph-name="bar" unicode="|" horiz-adv-x="531" 
d="M233 -246v967h65v-967h-65z" />
    <glyph glyph-name="braceright" unicode="}" horiz-adv-x="333" 
d="M23 716h27c27 0 53 0 81 -13c52 -24 73 -78 73 -165c0 -150 -6 -249 102 -252v-79c-108 -3 -102 -101 -102 -252c0 -87 -21 -141 -73 -165c-28 -13 -54 -13 -81 -13h-27v77h15c66 0 84 15 84 101v71c0 117 18 186 102 221c-78 37 -102 86 -102 220v71
c0 86 -18 101 -84 101h-15v77z" />
    <glyph glyph-name="asciitilde" unicode="~" horiz-adv-x="656" 
d="M593 413v-71c-49 -41 -98 -62 -140 -62c-85 0 -180 79 -246 79c-46 0 -92 -25 -143 -67v70c51 42 104 61 144 61c81 0 178 -79 243 -79c51 0 94 28 142 69z" />
    <glyph glyph-name="exclamdown" unicode="&#xa1;" horiz-adv-x="292" 
d="M219 396c-23 -22 -49 -50 -70 -77c-28 25 -52 51 -74 67c19 16 44 44 70 76c24 -27 50 -48 74 -66zM130 277l45 9c2 -152 2 -324 18 -517c-32 -5 -69 -12 -93 -19c10 175 21 352 30 527z" />
    <glyph glyph-name="cent" unicode="&#xa2;" horiz-adv-x="552" 
d="M264 601v116l39 9v-114c90 -4 148 -44 171 -115l-92 -39c-15 45 -41 72 -79 79v-338c15 -6 34 -13 58 -13c36 0 76 10 98 26l9 -16c-54 -42 -102 -72 -165 -75v-127l-39 -5v135c-126 16 -190 92 -190 212c0 84 34 161 66 192c14 14 59 44 124 73zM264 214v331h-52
c-29 -22 -41 -73 -41 -144c0 -104 26 -151 93 -187z" />
    <glyph glyph-name="sterling" unicode="&#xa3;" horiz-adv-x="510" 
d="M119 359v171c0 65 14 92 70 148c59 59 102 89 149 89c55 0 121 -26 170 -79l-67 -99c-71 56 -134 85 -178 85c-38 0 -43 -24 -43 -185c0 -30 1 -75 2 -130h195l-24 -40h-171v-88c0 -83 -4 -151 -27 -201h21c51 0 106 -2 162 -2c54 0 105 3 147 11
c-16 -30 -32 -76 -37 -99c-26 1 -163 7 -417 7c32 69 48 135 48 259v113h-59c10 11 18 20 30 40h29z" />
    <glyph glyph-name="fraction" unicode="&#x2044;" horiz-adv-x="135" 
d="M-162 -13l413 739h47l-413 -739h-47z" />
    <glyph glyph-name="yen" unicode="&#xa5;" horiz-adv-x="521" 
d="M504 718l-181 -427h184l-28 -45h-157v-81h185l-28 -45h-156c0 -38 1 -78 2 -119l-121 -7c2 49 2 92 3 126h-185l28 45h159v81h-187l28 45h160l-188 414c27 1 77 9 118 19l153 -356c31 56 78 173 144 346h6c17 0 41 2 61 4z" />
    <glyph glyph-name="florin" unicode="&#x192;" horiz-adv-x="552" 
d="M290 371h-99l30 43h74l18 89c8 39 17 78 58 122c60 64 153 102 182 102c15 0 31 -8 42 -14c-11 -20 -26 -49 -51 -83c-33 8 -66 16 -99 19c-9 -17 -12 -38 -17 -68l-28 -167h106l-31 -43h-82l-43 -255c-6 -36 -19 -71 -28 -103c-21 -73 -174 -160 -219 -160
c-16 0 -31 8 -42 15l48 82c45 -12 77 -15 101 -18c7 17 12 34 14 48z" />
    <glyph glyph-name="section" unicode="&#xa7;" horiz-adv-x="500" 
d="M88 541c0 106 142 176 190 176c52 0 112 -34 150 -112l-91 -42c-27 71 -73 98 -114 98c-30 0 -48 -35 -48 -68c0 -144 264 -113 264 -271c0 -62 -41 -100 -134 -154c49 -29 102 -64 102 -142c0 -45 -23 -86 -65 -120c-49 -40 -91 -62 -117 -62c-40 0 -124 32 -157 127
l92 41c39 -82 96 -106 115 -106c27 0 45 35 45 72c0 70 -50 93 -171 150c-51 24 -83 69 -83 121c0 78 61 109 131 147c-49 25 -109 62 -109 145zM227 379c-53 -31 -70 -54 -70 -90c0 -41 30 -63 116 -105c47 29 69 58 69 93c0 48 -33 70 -115 102z" />
    <glyph glyph-name="currency" unicode="&#xa4;" horiz-adv-x="613" 
d="M538 174c-16 -16 -31 -32 -48 -48l-67 67c-33 -25 -75 -38 -117 -38c-34 0 -78 9 -116 38c-22 -23 -45 -45 -68 -67l-47 48l68 65c-24 36 -37 76 -37 115s12 81 37 115c-23 22 -46 43 -68 66l47 48c23 -22 46 -44 68 -67c40 28 82 37 116 37c37 0 82 -11 116 -37l68 67
c17 -16 32 -32 48 -48c-22 -23 -45 -44 -68 -66c27 -38 37 -79 37 -115c0 -39 -12 -78 -37 -115zM439 355c0 77 -66 131 -132 131c-76 0 -133 -60 -133 -131c0 -72 60 -133 132 -133c73 0 133 61 133 133z" />
    <glyph glyph-name="quotesingle" unicode="'" horiz-adv-x="188" 
d="M121 462h-55l-22 134v120h100v-120z" />
    <glyph glyph-name="quotedblleft" unicode="&#x201c;" horiz-adv-x="427" 
d="M189 559l-68 -89c-39 23 -61 52 -61 92c0 54 39 105 102 165l13 -14c-23 -24 -39 -48 -39 -76c0 -31 17 -60 53 -78zM355 559l-68 -89c-39 23 -61 52 -61 92c0 54 39 105 102 165l12 -14c-23 -24 -38 -48 -38 -76c0 -31 17 -59 53 -78z" />
    <glyph glyph-name="guillemotleft" unicode="&#xab;" horiz-adv-x="500" 
d="M10 252l208 213l82 6l-201 -192l213 -249l-91 -44zM175 257l210 204l75 5l-196 -177l229 -257l-89 -44z" />
    <glyph glyph-name="guilsinglleft" unicode="&#x2039;" horiz-adv-x="333" 
d="M9 257l210 204l76 5l-197 -177l229 -257l-89 -44z" />
    <glyph glyph-name="guilsinglright" unicode="&#x203a;" horiz-adv-x="333" 
d="M324 197l-210 -203l-75 -6l196 178l-229 257l89 43z" />
    <glyph glyph-name="endash" unicode="&#x2013;" horiz-adv-x="552" 
d="M79 200l33 71l363 3l-34 -74h-362z" />
    <glyph glyph-name="dagger" unicode="&#x2020;" 
d="M197 445v85c0 24 -3 79 -7 160c46 10 79 20 103 27c-3 -42 -8 -103 -12 -187l-4 -85h158l-25 -45h-133c-3 -39 -4 -76 -5 -110l-12 -521l-51 -15l-12 642h-150l25 42z" />
    <glyph glyph-name="daggerdbl" unicode="&#x2021;" 
d="M198 474v79c0 31 -5 77 -7 137c39 8 76 18 103 27c-12 -98 -15 -182 -15 -186v-57h157l-24 -45l-133 -4c-2 -27 -5 -84 -6 -143l-3 -166h149l-24 -46c-19 1 -41 1 -61 1s-44 0 -64 -1l-10 -300l-50 -15l-5 315c-45 3 -96 3 -151 3l21 43h130l-7 309h-150l27 44
c30 2 77 3 123 5z" />
    <glyph glyph-name="periodcentered" unicode="&#xb7;" horiz-adv-x="260" 
d="M130 426l72 -69c-22 -18 -46 -43 -71 -69c-25 27 -57 54 -73 66c16 11 44 39 72 72z" />
    <glyph glyph-name="paragraph" unicode="&#xb6;" horiz-adv-x="469" 
d="M474 688h-68v-883h-36v883h-95v-883h-37v529c-75 3 -135 7 -186 53c-38 34 -57 81 -57 137c0 117 82 192 228 192h251v-28z" />
    <glyph glyph-name="bullet" unicode="&#x2022;" horiz-adv-x="354" 
d="M53 351c0 68 56 123 124 123s123 -55 123 -123s-55 -124 -123 -124s-124 56 -124 124z" />
    <glyph glyph-name="quotesinglbase" unicode="&#x201a;" horiz-adv-x="260" 
d="M89 -106l-15 12c28 32 45 61 45 85c0 30 -23 52 -54 81l69 78c45 -27 63 -65 63 -91c0 -38 -38 -104 -108 -165z" />
    <glyph glyph-name="quotedblbase" unicode="&#x201e;" horiz-adv-x="427" 
d="M88 -106l-15 12c28 32 45 61 45 85c0 30 -23 52 -54 81l69 78c45 -27 63 -65 63 -91c0 -38 -38 -104 -108 -165zM256 -106l-15 12c28 32 45 61 45 85c0 31 -24 53 -54 81l69 78c45 -27 63 -66 63 -91c0 -38 -37 -104 -108 -165z" />
    <glyph glyph-name="quotedblright" unicode="&#x201d;" horiz-adv-x="427" 
d="M98 468l-15 11c25 28 39 58 39 83c0 31 -23 49 -61 82l63 83c46 -27 70 -61 70 -93c0 -42 -33 -102 -96 -166zM266 468l-15 11c25 28 39 58 39 83c0 31 -23 49 -61 82l63 83c47 -27 70 -61 70 -93c0 -41 -33 -102 -96 -166z" />
    <glyph glyph-name="guillemotright" unicode="&#xbb;" horiz-adv-x="500" 
d="M490 205l-208 -213l-82 -6l201 192l-213 249l91 44zM325 200l-210 -204l-75 -5l196 177l-229 257l89 44z" />
    <glyph glyph-name="ellipsis" unicode="&#x2026;" horiz-adv-x="1000" 
d="M427 48c16 12 44 39 72 72c24 -22 50 -46 73 -69c-22 -17 -47 -42 -72 -69c-25 27 -58 55 -73 66zM761 48c17 12 44 39 72 72l72 -69c-22 -18 -47 -42 -72 -69c-25 27 -56 54 -72 66zM166 120l72 -69c-22 -17 -46 -42 -71 -69c-25 27 -57 55 -73 66c16 12 44 39 72 72z
" />
    <glyph glyph-name="perthousand" unicode="&#x2030;" horiz-adv-x="1240" 
d="M524 348l99 80c10 1 17 2 27 2c90 0 145 -74 145 -181c0 -161 -110 -264 -175 -264c-80 0 -140 85 -140 190c0 53 15 120 44 173zM693 55c23 44 34 92 34 144c0 176 -117 185 -147 162c-22 -41 -32 -89 -32 -137c0 -97 48 -172 118 -172c8 0 21 2 27 3zM102 644l99 80
c10 1 17 2 27 2c90 0 145 -74 145 -181c0 -161 -110 -264 -175 -264c-80 0 -140 86 -140 191c0 54 16 119 44 172zM272 351c23 44 33 92 33 144c0 176 -117 185 -146 162c-22 -42 -33 -89 -33 -136c0 -96 48 -173 118 -173c8 0 22 2 28 3zM912 348l99 80c10 1 17 2 27 2
c90 0 145 -74 145 -181c0 -160 -110 -264 -175 -264c-80 0 -140 85 -140 190c0 53 16 120 44 173zM1082 55c23 44 33 91 33 144c0 176 -117 185 -146 162c-22 -42 -33 -89 -33 -137c0 -97 48 -172 118 -172c8 0 22 2 28 3zM191 -13l413 739h47l-413 -739h-47z" />
    <glyph glyph-name="questiondown" unicode="&#xbf;" horiz-adv-x="406" 
d="M285 392c-14 -8 -40 -35 -76 -73c-20 23 -47 46 -73 71c16 10 42 37 73 72c11 -14 40 -40 76 -70zM354 -133l13 -15l-80 -81c-29 -16 -62 -23 -99 -23c-99 0 -169 72 -169 161c0 56 34 118 88 166c49 43 72 88 72 127c0 16 -3 35 -8 46c44 15 79 28 97 38
c1 -5 2 -14 2 -20c0 -60 -8 -64 -83 -169c-24 -34 -65 -89 -65 -140c0 -72 55 -131 123 -131c34 0 73 13 109 41z" />
    <glyph glyph-name="grave" unicode="`" horiz-adv-x="333" 
d="M178 542l-143 132l134 -9l64 -123h-55z" />
    <glyph glyph-name="acute" unicode="&#xb4;" horiz-adv-x="333" 
d="M102 542l61 123l133 9l-139 -132h-55z" />
    <glyph glyph-name="circumflex" unicode="&#x2c6;" horiz-adv-x="333" 
d="M36 541l88 117l139 10l34 -127h-49l-69 76l-94 -76h-49z" />
    <glyph glyph-name="tilde" unicode="&#x2dc;" horiz-adv-x="333" 
d="M35 542h-67c33 79 90 118 136 118c23 0 59 -15 87 -32c35 -21 59 -36 65 -36c15 0 28 27 40 71l69 -10c-31 -70 -89 -111 -141 -111c-34 0 -73 23 -128 55c-8 5 -21 11 -27 11c-18 0 -26 -30 -34 -66z" />
    <glyph glyph-name="macron" unicode="&#xaf;" horiz-adv-x="333" 
d="M-8 540v74h350v-74h-350z" />
    <glyph glyph-name="breve" unicode="&#x2d8;" horiz-adv-x="333" 
d="M247 661h84c-41 -80 -107 -121 -170 -121c-65 0 -131 44 -159 121h80c15 -55 40 -86 78 -86c26 0 64 22 87 86z" />
    <glyph glyph-name="dotaccent" unicode="&#x2d9;" horiz-adv-x="333" 
d="M166 669l65 -63c-25 -21 -46 -44 -65 -65c-15 19 -48 50 -64 62c35 30 50 53 64 66z" />
    <glyph glyph-name="dieresis" unicode="&#xa8;" horiz-adv-x="333" 
d="M63 669l65 -63c-25 -21 -46 -44 -65 -65c-15 19 -48 50 -64 62c35 30 50 53 64 66zM270 669c7 -6 27 -28 65 -63c-27 -22 -48 -46 -65 -65c-15 18 -47 49 -64 62c35 30 50 53 64 66z" />
    <glyph glyph-name="ring" unicode="&#x2da;" horiz-adv-x="333" 
d="M180 705c35 0 61 -29 61 -69c0 -51 -40 -96 -89 -96c-37 0 -60 35 -60 68c0 47 38 97 88 97zM144 668c-6 -11 -14 -26 -14 -44c0 -27 23 -47 47 -47c8 0 16 3 20 5c2 8 5 22 5 35c0 31 -22 52 -45 52c-5 0 -8 0 -13 -1z" />
    <glyph glyph-name="cedilla" unicode="&#xb8;" horiz-adv-x="333" 
d="M124 -116l34 116h30l-19 -64h13c55 0 83 -23 83 -65c0 -61 -59 -108 -178 -107v30c89 5 123 42 123 79c0 15 -9 22 -24 22c-19 0 -42 -6 -62 -11z" />
    <glyph glyph-name="hungarumlaut" unicode="&#x2dd;" horiz-adv-x="333" 
d="M46 542l61 123l133 9l-139 -132h-55zM215 542l61 123l133 9l-139 -132h-55z" />
    <glyph glyph-name="ogonek" unicode="&#x2db;" horiz-adv-x="333" 
d="M292 -186l-85 -48c-4 0 -7 -1 -11 -1c-73 0 -132 46 -132 115c0 49 16 50 106 120h45c-47 -31 -78 -63 -107 -86c0 -4 -1 -7 -1 -11c0 -57 40 -93 97 -93c32 0 58 10 80 20z" />
    <glyph glyph-name="caron" unicode="&#x2c7;" horiz-adv-x="333" 
d="M297 668l-88 -117l-139 -10l-34 127h49l69 -76l94 76h49z" />
    <glyph glyph-name="emdash" unicode="&#x2014;" horiz-adv-x="854" 
d="M66 196l33 72l696 6l-34 -74z" />
    <glyph glyph-name="AE" unicode="&#xc6;" horiz-adv-x="771" 
d="M58 -5l-86 -5c209 331 338 591 419 721h287c21 0 46 1 67 2l-37 -68c-35 1 -71 2 -104 2c-32 0 -67 -1 -100 -2c-1 -154 -4 -235 -4 -246c36 -1 74 -1 110 -1c44 0 89 0 131 1l-36 -70h-27c-34 0 -75 2 -121 2c-20 0 -41 -1 -57 -2c0 -17 -1 -39 -1 -56
c0 -61 3 -130 5 -204c39 -2 80 -4 119 -4c41 0 85 2 126 4l-31 -74c-55 1 -168 3 -334 5c5 39 7 80 7 119v117h-52c-51 0 -103 -1 -153 -3c-67 -119 -110 -200 -128 -238zM391 300v305l-169 -308c55 1 103 3 138 3h31z" />
    <glyph glyph-name="ordfeminine" unicode="&#xaa;" horiz-adv-x="333" 
d="M59 641l-16 18l62 61c20 5 42 8 61 8c75 0 119 -33 119 -102v-201c-23 -4 -51 -1 -81 -4c2 11 2 23 2 29l-70 -34c-2 0 -11 -1 -13 -1c-38 0 -85 31 -85 84c0 63 64 107 134 107c14 0 22 -1 36 -2v10c0 37 -19 55 -71 55c-33 0 -57 -9 -78 -28zM208 482v70
c-18 6 -39 10 -57 10c-12 0 -26 -1 -39 -7c-2 -4 -6 -13 -6 -21c0 -28 24 -57 65 -57c15 0 29 3 37 5z" />
    <glyph glyph-name="Lslash" unicode="&#x141;" horiz-adv-x="448" 
d="M0 238l68 74c0 142 0 277 -3 405c33 1 73 2 113 5c1 -113 0 -211 1 -290l104 112v-64l-103 -112c1 -169 -1 -270 2 -301c40 -2 85 -3 129 -3c47 0 88 0 116 2l-25 -71l-334 3c0 57 1 117 1 176c0 23 -1 50 -1 73l-68 -74v65z" />
    <glyph glyph-name="Oslash" unicode="&#xd8;" horiz-adv-x="698" 
d="M716 725l-111 -120c44 -66 62 -140 62 -228c0 -112 -30 -193 -105 -272c-76 -79 -167 -121 -245 -121c-69 0 -147 30 -204 86l-78 -85h-59l109 118c-45 66 -60 132 -60 219c0 135 41 233 139 314c73 61 152 91 212 91c80 0 148 -30 202 -88l79 86h59zM524 517l-327 -356
c58 -58 131 -87 198 -87c53 0 96 15 133 45c28 53 48 104 48 187c0 79 -18 149 -52 211zM169 194l329 359c-49 55 -114 83 -192 83c-54 0 -90 -11 -127 -31c-45 -65 -67 -126 -67 -216c0 -77 18 -136 57 -195z" />
    <glyph glyph-name="OE" unicode="&#x152;" horiz-adv-x="875" 
d="M661 711c78 0 142 1 187 0l-36 -68c-45 1 -90 1 -130 1c-25 0 -53 2 -77 1l-4 -248h31c44 0 97 -1 153 -1c22 0 35 0 57 1l-35 -70c-63 0 -117 2 -160 2c-18 0 -28 -1 -46 -2c0 -13 -1 -31 -1 -44c0 -67 1 -145 5 -215c33 -3 68 -4 100 -4c63 0 116 1 148 4l-34 -75
c-66 2 -152 4 -251 4c-81 0 -137 -2 -166 -2c-243 0 -376 132 -376 316c0 130 70 274 194 353c67 42 124 50 189 50c51 0 136 -3 252 -3zM486 59c4 114 6 228 6 340c0 80 -1 159 -6 236c-36 6 -76 12 -118 12c-90 0 -165 -37 -187 -58c-28 -27 -58 -97 -58 -187
c0 -196 123 -344 319 -344c17 0 27 0 44 1z" />
    <glyph glyph-name="ordmasculine" unicode="&#xba;" horiz-adv-x="354" 
d="M288 480l-76 -57c-15 -7 -30 -12 -51 -12c-72 0 -127 55 -127 136c0 47 18 80 35 113c43 40 73 68 131 68c71 0 123 -56 123 -123c0 -38 -12 -82 -35 -125zM238 483c10 24 13 51 13 77c0 72 -36 109 -87 109c-14 0 -24 -2 -37 -9c-15 -21 -21 -48 -21 -75
c0 -72 42 -107 100 -107c13 0 23 1 32 5z" />
    <glyph glyph-name="ae" unicode="&#xe6;" horiz-adv-x="677" 
d="M159 -16c-60 0 -125 55 -125 129c0 85 82 166 205 166c18 0 41 -3 59 -5c-1 69 3 134 -120 134c-51 0 -85 -13 -119 -43l-11 13l86 92c27 7 57 12 90 12c68 0 122 -26 150 -69c66 30 99 64 143 64c75 0 146 -62 146 -174c0 -6 -1 -19 -1 -25l-100 -48l-169 3
c3 -120 74 -178 179 -178c39 0 67 8 90 16l6 -13l-93 -53c-26 -15 -39 -24 -77 -24c-80 0 -140 28 -171 82c-112 -55 -143 -79 -168 -79zM393 280l169 -3c-2 89 -42 133 -106 133c-14 0 -26 -3 -34 -4c-19 -35 -29 -78 -29 -115v-11zM297 192v17c-18 7 -44 18 -92 18
c-61 0 -80 -5 -80 -56c0 -58 42 -107 108 -107c33 0 60 10 83 20c-10 28 -19 52 -19 108z" />
    <glyph glyph-name="dotlessi" unicode="&#x131;" horiz-adv-x="219" 
d="M63 0v470h12c29 0 60 3 87 2l-3 -472h-96z" />
    <glyph glyph-name="lslash" unicode="&#x142;" horiz-adv-x="219" 
d="M161 715v-272l58 63v-61l-58 -63v-382h-103c1 92 3 185 4 276l-62 -66v60l62 67c0 82 2 164 2 243c0 44 -1 90 -2 135h99z" />
    <glyph glyph-name="oslash" unicode="&#xf8;" 
d="M497 484l-75 -81c21 -33 32 -71 32 -112c0 -54 -16 -127 -51 -198l-114 -93c-20 -10 -43 -17 -69 -17c-57 0 -98 18 -137 57l-54 -58h-47l80 86c-22 35 -33 82 -33 128c0 76 26 129 51 182l117 92c16 8 36 15 71 15c59 0 96 -16 133 -53l48 52h48zM346 322l-185 -199
c30 -36 75 -54 124 -54c26 0 43 7 55 12c13 35 23 91 23 141c0 35 -5 67 -17 100zM142 154l187 200c-29 38 -64 57 -111 57c-33 0 -48 -8 -62 -18c-24 -38 -36 -81 -36 -132c0 -37 8 -73 22 -107z" />
    <glyph glyph-name="oe" unicode="&#x153;" horiz-adv-x="740" 
d="M217 -17c-98 0 -188 79 -188 211c0 61 16 125 50 181l119 96c16 6 38 14 70 14c65 0 118 -35 150 -97c28 37 55 44 73 56c32 21 63 34 92 34c79 0 143 -67 143 -177c0 -5 -1 -18 -1 -23l-100 -48l-168 3c0 -5 -1 -7 -1 -12c0 -88 74 -167 182 -167c36 0 63 10 84 18
l6 -15l-103 -60c-18 -11 -30 -14 -45 -14c-91 0 -148 34 -186 108c-84 -85 -122 -108 -177 -108zM453 280l172 -3c-5 89 -41 134 -107 134c-15 0 -26 -3 -34 -5c-21 -39 -31 -83 -31 -119v-7zM340 81c14 57 22 109 22 149c0 116 -53 181 -142 181c-27 0 -54 -8 -66 -20
c-12 -13 -34 -69 -34 -141c0 -111 67 -182 165 -182c28 0 43 7 55 13z" />
    <glyph glyph-name="germandbls" unicode="&#xdf;" horiz-adv-x="500" 
d="M330 474c7 11 7 20 7 34c0 21 -8 42 -17 60c-22 46 -47 69 -106 69c-5 0 -17 -1 -22 -1c-9 -19 -10 -30 -10 -45v-591h-103v428c0 118 23 181 113 246c35 25 68 42 97 42c73 0 135 -97 135 -156c0 -42 -26 -77 -106 -171c-5 -6 -8 -17 -8 -25c0 -28 25 -41 73 -84
c60 -53 97 -73 97 -128c0 -97 -119 -173 -162 -173c-44 0 -87 47 -110 121l94 36c16 -69 44 -98 67 -98c18 0 29 32 29 55c0 87 -163 130 -163 213c0 16 0 25 9 38c30 42 59 87 86 130z" />
    <glyph glyph-name="onesuperior" unicode="&#xb9;" horiz-adv-x="344" 
d="M148 351h-15c2 68 4 138 4 208c0 69 -1 122 -3 153l79 17c-5 -102 -4 -181 -4 -237c0 -43 1 -90 4 -139c-21 -2 -46 -2 -65 -2z" />
    <glyph glyph-name="logicalnot" unicode="&#xac;" horiz-adv-x="667" 
d="M68 412v64h531v-302h-63v238h-468z" />
    <glyph glyph-name="mu" unicode="&#xb5;" horiz-adv-x="552" 
d="M407 0v61c-28 -42 -60 -73 -132 -73c-65 0 -96 31 -122 64v-251h-87v671h87v-206c0 -61 4 -108 17 -134c20 -41 58 -65 101 -65c44 0 82 21 105 57c18 28 22 76 22 140v208h87v-472h-78z" />
    <glyph glyph-name="trademark" unicode="&#x2122;" horiz-adv-x="1000" 
d="M305 318h-66v339h-129v59h325v-59h-130v-339zM540 318h-60v398h98l100 -318l97 318h96v-398h-61v334l-102 -334h-60l-108 339v-339z" />
    <glyph glyph-name="Eth" unicode="&#xd0;" horiz-adv-x="667" 
d="M263 -3l-203 4c5 113 3 224 3 336h-63v46h63v10c0 103 0 210 -2 321l210 3c235 3 370 -127 370 -317c0 -198 -156 -407 -378 -403zM359 337h-184c2 -93 1 -180 4 -261c39 -7 80 -11 116 -11c82 0 163 30 193 59c33 32 56 107 56 184c0 205 -128 347 -325 347
c-12 0 -29 0 -40 -1c-4 -29 -2 -119 -4 -271h184v-46z" />
    <glyph glyph-name="onehalf" unicode="&#xbd;" horiz-adv-x="854" 
d="M485 346l-5 12c39 49 54 70 111 70c98 0 145 -60 145 -133c0 -79 -46 -162 -137 -233h145l-24 -64h-248l21 58l90 31c55 44 85 108 85 161c0 69 -39 113 -120 113c-31 0 -46 -8 -63 -15zM160 298v422l66 11v-430zM138 -13l413 739h47l-413 -739h-47z" />
    <glyph glyph-name="plusminus" unicode="&#xb1;" horiz-adv-x="667" 
d="M67 373v64h233v234h64v-234h235v-64h-235v-233h-64v233h-233zM67 -22v64h532v-64h-532z" />
    <glyph glyph-name="Thorn" unicode="&#xde;" horiz-adv-x="521" 
d="M176 -4h-117c4 77 6 230 6 459c0 89 0 176 -1 259c6 0 20 -1 26 -1c24 0 55 1 86 3v-141c30 2 60 3 83 3c160 0 239 -68 239 -179c0 -79 -41 -144 -118 -196c-99 -68 -115 -65 -160 -65c-12 0 -31 1 -44 1v-143zM176 510v-36c0 -91 0 -179 -2 -261c30 -8 56 -8 80 -8
c52 0 78 10 95 16c28 32 41 68 41 126c0 109 -61 164 -186 164c-11 0 -17 -1 -28 -1z" />
    <glyph glyph-name="onequarter" unicode="&#xbc;" horiz-adv-x="854" 
d="M413 130l182 285l62 19v-254h55l-15 -46h-40l3 -137l-70 -2v137zM590 180v166l-109 -166h109zM206 300v423l66 10v-430zM180 -13l413 739h47l-413 -739h-47z" />
    <glyph glyph-name="divide" unicode="&#xf7;" horiz-adv-x="667" 
d="M68 293v61h531v-61h-531zM284 531c0 26 22 46 48 46s49 -22 49 -48c0 -65 -97 -64 -97 2zM284 125c0 64 97 65 97 1c0 -27 -21 -49 -48 -49s-49 21 -49 48z" />
    <glyph glyph-name="brokenbar" unicode="&#xa6;" horiz-adv-x="531" 
d="M233 -246v353h65v-353h-65zM233 367v354h65v-354h-65z" />
    <glyph glyph-name="degree" unicode="&#xb0;" horiz-adv-x="396" 
d="M62 592c0 74 61 135 136 135s135 -60 135 -135s-60 -136 -135 -136c-76 0 -136 62 -136 136zM115 592c0 -45 37 -83 83 -83s82 38 82 83s-36 82 -82 82s-83 -37 -83 -82z" />
    <glyph glyph-name="thorn" unicode="&#xfe;" 
d="M53 -246v961h103v-304l116 63c115 -3 178 -96 178 -208c0 -93 -42 -183 -91 -222c-43 -34 -98 -63 -131 -63c-20 0 -46 5 -72 9v-236h-103zM156 215v-139c45 -24 97 -36 123 -36c14 0 22 3 31 7c24 43 36 109 36 179c0 144 -86 192 -145 177c-33 -32 -45 -91 -45 -188z
" />
    <glyph glyph-name="threequarters" unicode="&#xbe;" horiz-adv-x="854" 
d="M136 495c0 2 1 4 2 5l43 47c7 1 19 3 26 3c15 0 33 -2 45 -8c2 6 16 24 16 57c0 47 -27 73 -74 73c-27 0 -47 -9 -65 -18l-8 11l59 52c19 6 38 8 56 8c66 0 104 -40 104 -92c0 -42 -24 -69 -62 -97c55 -23 82 -64 82 -110c0 -73 -89 -147 -140 -147c-28 0 -78 14 -104 55
l55 53c28 -30 56 -49 90 -49c6 0 16 1 20 2c7 11 11 23 11 43c0 55 -44 108 -119 108c-20 0 -37 -7 -37 4zM453 131l181 285l63 19l-2 -253h56l-15 -47h-39l3 -137l-70 -3v138zM630 179v167l-109 -167h109zM220 -13l413 739h47l-414 -739h-46z" />
    <glyph glyph-name="twosuperior" unicode="&#xb2;" horiz-adv-x="344" 
d="M51 652l-15 11l54 50c23 11 41 14 66 14c83 0 133 -63 133 -118c0 -77 -38 -140 -109 -196l118 -3l-23 -58c-21 2 -57 1 -101 1h-139l20 55c45 14 91 22 115 43c28 25 51 73 51 118c0 58 -41 99 -110 99c-21 0 -42 -4 -60 -16z" />
    <glyph glyph-name="registered" unicode="&#xae;" horiz-adv-x="740" 
d="M272 155h-64v396h136c42 0 79 0 108 -13c37 -17 62 -54 62 -91c0 -61 -44 -110 -113 -115c35 -14 57 -43 92 -100l48 -77h-78l-35 62c-45 80 -65 106 -118 106h-38v-168zM272 497v-119h78c58 0 96 14 96 60c0 55 -52 59 -101 59h-73zM370 726c204 0 368 -164 368 -367
s-163 -368 -368 -368c-203 0 -369 164 -369 368c0 203 165 367 369 367zM370 667c-170 0 -308 -138 -308 -308s139 -309 308 -309s307 139 307 309s-137 308 -307 308z" />
    <glyph glyph-name="minus" unicode="&#x2212;" horiz-adv-x="667" 
d="M68 292v64h531v-64h-531z" />
    <glyph glyph-name="eth" unicode="&#xf0;" 
d="M165 606l75 28c-26 31 -42 44 -54 54l36 39c38 -26 63 -50 83 -69l124 45l-14 -53l-80 -27c77 -98 116 -195 116 -307c0 -92 -34 -198 -52 -217c-90 -91 -129 -116 -180 -116c-101 0 -195 75 -195 211c0 62 19 121 51 181l95 75c25 20 41 34 78 34c36 0 62 -12 87 -31
c-12 52 -29 100 -64 146l-119 -43zM339 81c12 51 21 103 21 152c0 118 -54 177 -144 177c-34 0 -61 -10 -73 -32c-10 -19 -22 -75 -22 -129c0 -103 59 -181 159 -181c30 0 47 7 59 13z" />
    <glyph glyph-name="multiply" unicode="&#xd7;" horiz-adv-x="667" 
d="M289 323l-199 200l45 45l199 -200l200 200l45 -46l-199 -199l197 -198l-45 -45l-198 198l-198 -198l-45 45z" />
    <glyph glyph-name="threesuperior" unicode="&#xb3;" horiz-adv-x="344" 
d="M69 512l-13 10l59 49c8 2 22 3 29 3c12 0 23 -2 30 -4c12 13 18 27 18 47c0 36 -27 57 -68 57c-29 0 -47 -9 -58 -15l-13 13l63 48c11 3 28 6 48 6c61 0 106 -33 106 -83c0 -36 -20 -59 -54 -86c43 -21 66 -57 66 -95c0 -20 -7 -40 -20 -55c-12 -14 -51 -42 -87 -59
c-7 -1 -18 -2 -26 -2c-54 0 -81 18 -108 49l60 47c22 -22 47 -42 87 -42c16 0 26 5 26 24c0 45 -43 91 -112 91c-11 0 -24 -2 -33 -3z" />
    <glyph glyph-name="copyright" unicode="&#xa9;" horiz-adv-x="740" 
d="M540 450l-58 -14c-19 50 -59 75 -114 75c-73 0 -124 -60 -124 -156c0 -94 47 -149 126 -149c48 0 102 28 118 93l60 -18c-20 -85 -91 -134 -177 -134c-117 0 -195 78 -195 217c0 115 73 201 198 201c84 0 144 -41 166 -115zM370 726c204 0 368 -164 368 -367
s-163 -368 -368 -368c-203 0 -369 164 -369 368c0 203 165 367 369 367zM370 667c-170 0 -308 -138 -308 -308s139 -309 308 -309s307 139 307 309s-137 308 -307 308z" />
    <glyph glyph-name="Aacute" unicode="&#xc1;" horiz-adv-x="625" 
d="M246 634l-27 60c34 13 85 19 111 31c98 -267 194 -505 280 -717c-31 -6 -71 -10 -115 -22l-86 249h-237l-75 -237l-77 -6c47 123 97 269 156 433c25 71 52 140 70 209zM381 299l-100 256l-87 -256h187zM248 767l61 123l133 9l-139 -132h-55z" />
    <glyph glyph-name="Acircumflex" unicode="&#xc2;" horiz-adv-x="625" 
d="M246 634l-27 60c34 13 85 19 111 31c98 -267 194 -505 280 -717c-31 -6 -71 -10 -115 -22l-86 249h-237l-75 -237l-77 -6c47 123 97 269 156 433c25 71 52 140 70 209zM381 299l-100 256l-87 -256h187zM182 766l88 117l139 10l34 -127h-49l-69 76l-94 -76h-49z" />
    <glyph glyph-name="Adieresis" unicode="&#xc4;" horiz-adv-x="625" 
d="M246 634l-27 60c34 13 85 19 111 31c98 -267 194 -505 280 -717c-31 -6 -71 -10 -115 -22l-86 249h-237l-75 -237l-77 -6c47 123 97 269 156 433c25 71 52 140 70 209zM381 299l-100 256l-87 -256h187zM209 894l65 -63c-25 -21 -46 -44 -65 -65c-15 19 -48 50 -64 62
c35 30 50 53 64 66zM416 894c7 -6 27 -28 65 -63c-27 -22 -48 -46 -65 -65c-15 18 -47 49 -64 62c35 30 50 53 64 66z" />
    <glyph glyph-name="Agrave" unicode="&#xc0;" horiz-adv-x="625" 
d="M246 634l-27 60c34 13 85 19 111 31c98 -267 194 -505 280 -717c-31 -6 -71 -10 -115 -22l-86 249h-237l-75 -237l-77 -6c47 123 97 269 156 433c25 71 52 140 70 209zM381 299l-100 256l-87 -256h187zM324 767l-143 132l134 -9l64 -123h-55z" />
    <glyph glyph-name="Aring" unicode="&#xc5;" horiz-adv-x="625" 
d="M246 634l-27 60c34 13 85 19 111 31c98 -267 194 -505 280 -717c-31 -6 -71 -10 -115 -22l-86 249h-237l-75 -237l-77 -6c47 123 97 269 156 433c25 71 52 140 70 209zM381 299l-100 256l-87 -256h187zM326 930c35 0 61 -29 61 -69c0 -51 -40 -96 -89 -96
c-37 0 -60 35 -60 68c0 47 38 97 88 97zM290 893c-6 -11 -14 -26 -14 -44c0 -27 23 -47 47 -47c8 0 16 3 20 5c2 8 5 22 5 35c0 31 -22 52 -45 52c-5 0 -8 0 -13 -1z" />
    <glyph glyph-name="Atilde" unicode="&#xc3;" horiz-adv-x="625" 
d="M246 634l-27 60c34 13 85 19 111 31c98 -267 194 -505 280 -717c-31 -6 -71 -10 -115 -22l-86 249h-237l-75 -237l-77 -6c47 123 97 269 156 433c25 71 52 140 70 209zM381 299l-100 256l-87 -256h187zM181 767h-67c33 79 90 118 136 118c23 0 59 -15 87 -32
c35 -21 59 -36 65 -36c15 0 28 27 40 71l69 -10c-31 -70 -89 -111 -141 -111c-34 0 -73 23 -128 55c-8 5 -21 11 -27 11c-18 0 -26 -30 -34 -66z" />
    <glyph glyph-name="Ccedilla" unicode="&#xc7;" horiz-adv-x="594" 
d="M581 129l13 -20c-55 -55 -160 -124 -224 -128l-13 -45h12c55 0 83 -23 83 -65c0 -61 -59 -108 -178 -107v30c89 5 124 42 124 79c0 15 -9 22 -24 22c-19 0 -42 -6 -62 -11l28 97c-186 12 -306 159 -306 346c0 259 249 404 372 404c66 0 121 -21 173 -53l-75 -86
c-47 28 -94 43 -164 43c-66 0 -114 -10 -151 -49c-37 -38 -64 -115 -64 -201c0 -181 128 -306 300 -306c58 0 114 16 156 50z" />
    <glyph glyph-name="Eacute" unicode="&#xc9;" horiz-adv-x="448" 
d="M425 69l-33 -74c-71 1 -184 3 -332 3c4 157 5 329 5 513c0 66 -1 132 -2 200h356l-36 -69l-205 4l-4 -249h240l-34 -69c-32 2 -68 2 -100 2c-38 0 -76 0 -106 -1c-1 -11 -1 -27 -1 -37c0 -55 4 -131 5 -224c45 -3 90 -4 133 -4c35 0 74 2 114 5zM159 767l61 123l133 9
l-139 -132h-55z" />
    <glyph glyph-name="Ecircumflex" unicode="&#xca;" horiz-adv-x="448" 
d="M425 69l-33 -74c-71 1 -184 3 -332 3c4 157 5 329 5 513c0 66 -1 132 -2 200h356l-36 -69l-205 4l-4 -249h240l-34 -69c-32 2 -68 2 -100 2c-38 0 -76 0 -106 -1c-1 -11 -1 -27 -1 -37c0 -55 4 -131 5 -224c45 -3 90 -4 133 -4c35 0 74 2 114 5zM93 766l88 117l139 10
l34 -127h-49l-69 76l-94 -76h-49z" />
    <glyph glyph-name="Edieresis" unicode="&#xcb;" horiz-adv-x="448" 
d="M425 69l-33 -74c-71 1 -184 3 -332 3c4 157 5 329 5 513c0 66 -1 132 -2 200h356l-36 -69l-205 4l-4 -249h240l-34 -69c-32 2 -68 2 -100 2c-38 0 -76 0 -106 -1c-1 -11 -1 -27 -1 -37c0 -55 4 -131 5 -224c45 -3 90 -4 133 -4c35 0 74 2 114 5zM120 894l65 -63
c-25 -21 -46 -44 -65 -65c-15 19 -48 50 -64 62c35 30 50 53 64 66zM327 894c7 -6 27 -28 65 -63c-27 -22 -48 -46 -65 -65c-15 18 -47 49 -64 62c35 30 50 53 64 66z" />
    <glyph glyph-name="Egrave" unicode="&#xc8;" horiz-adv-x="448" 
d="M425 69l-33 -74c-71 1 -184 3 -332 3c4 157 5 329 5 513c0 66 -1 132 -2 200h356l-36 -69l-205 4l-4 -249h240l-34 -69c-32 2 -68 2 -100 2c-38 0 -76 0 -106 -1c-1 -11 -1 -27 -1 -37c0 -55 4 -131 5 -224c45 -3 90 -4 133 -4c35 0 74 2 114 5zM235 767l-143 132l134 -9
l64 -123h-55z" />
    <glyph glyph-name="Iacute" unicode="&#xcd;" horiz-adv-x="219" 
d="M56 714h111c-1 -81 -1 -165 -1 -251c0 -154 0 -310 2 -465c-38 -3 -75 2 -116 -4c4 150 6 306 6 469c0 82 -1 167 -2 251zM45 767l61 123l133 9l-139 -132h-55z" />
    <glyph glyph-name="Icircumflex" unicode="&#xce;" horiz-adv-x="219" 
d="M56 714h111c-1 -81 -1 -165 -1 -251c0 -154 0 -310 2 -465c-38 -3 -75 2 -116 -4c4 150 6 306 6 469c0 82 -1 167 -2 251zM-21 766l88 117l139 10l34 -127h-49l-69 76l-94 -76h-49z" />
    <glyph glyph-name="Idieresis" unicode="&#xcf;" horiz-adv-x="219" 
d="M56 714h111c-1 -81 -1 -165 -1 -251c0 -154 0 -310 2 -465c-38 -3 -75 2 -116 -4c4 150 6 306 6 469c0 82 -1 167 -2 251zM6 894l65 -63c-25 -21 -46 -44 -65 -65c-15 19 -48 50 -64 62c35 30 50 53 64 66zM213 894c7 -6 27 -28 65 -63c-27 -22 -48 -46 -65 -65
c-15 18 -47 49 -64 62c35 30 50 53 64 66z" />
    <glyph glyph-name="Igrave" unicode="&#xcc;" horiz-adv-x="219" 
d="M56 714h111c-1 -81 -1 -165 -1 -251c0 -154 0 -310 2 -465c-38 -3 -75 2 -116 -4c4 150 6 306 6 469c0 82 -1 167 -2 251zM121 767l-143 132l134 -9l64 -123h-55z" />
    <glyph glyph-name="Ntilde" unicode="&#xd1;" horiz-adv-x="625" 
d="M70 624l-46 60l108 39l369 -526v513c18 2 40 3 56 3h9v-42c0 -88 -4 -219 -4 -388c0 -115 1 -207 11 -276l-63 -20l-207 303l-176 252v-32c0 -232 0 -400 5 -510l-70 -5c4 225 6 432 8 629zM181 767h-67c33 79 90 118 136 118c23 0 59 -15 87 -32c35 -21 59 -36 65 -36
c15 0 28 27 40 71l69 -10c-31 -70 -89 -111 -141 -111c-34 0 -73 23 -128 55c-8 5 -21 11 -27 11c-18 0 -26 -30 -34 -66z" />
    <glyph glyph-name="Oacute" unicode="&#xd3;" horiz-adv-x="698" 
d="M376 727c169 0 293 -139 293 -350c0 -112 -31 -193 -107 -272c-76 -80 -167 -121 -245 -121c-71 0 -152 34 -204 87c-60 61 -88 144 -88 251c0 135 41 233 139 314c73 61 152 91 212 91zM529 119c28 52 46 104 46 187c0 200 -101 330 -269 330c-52 0 -89 -10 -127 -31
c-46 -66 -67 -128 -67 -216c0 -202 146 -315 283 -315c54 0 97 15 134 45zM284 767l61 123l133 9l-139 -132h-55z" />
    <glyph glyph-name="Ocircumflex" unicode="&#xd4;" horiz-adv-x="698" 
d="M376 727c169 0 293 -139 293 -350c0 -112 -31 -193 -107 -272c-76 -80 -167 -121 -245 -121c-71 0 -152 34 -204 87c-60 61 -88 144 -88 251c0 135 41 233 139 314c73 61 152 91 212 91zM529 119c28 52 46 104 46 187c0 200 -101 330 -269 330c-52 0 -89 -10 -127 -31
c-46 -66 -67 -128 -67 -216c0 -202 146 -315 283 -315c54 0 97 15 134 45zM218 766l88 117l139 10l34 -127h-49l-69 76l-94 -76h-49z" />
    <glyph glyph-name="Odieresis" unicode="&#xd6;" horiz-adv-x="698" 
d="M376 727c169 0 293 -139 293 -350c0 -112 -31 -193 -107 -272c-76 -80 -167 -121 -245 -121c-71 0 -152 34 -204 87c-60 61 -88 144 -88 251c0 135 41 233 139 314c73 61 152 91 212 91zM529 119c28 52 46 104 46 187c0 200 -101 330 -269 330c-52 0 -89 -10 -127 -31
c-46 -66 -67 -128 -67 -216c0 -202 146 -315 283 -315c54 0 97 15 134 45zM245 894l65 -63c-25 -21 -46 -44 -65 -65c-15 19 -48 50 -64 62c35 30 50 53 64 66zM452 894c7 -6 27 -28 65 -63c-27 -22 -48 -46 -65 -65c-15 18 -47 49 -64 62c35 30 50 53 64 66z" />
    <glyph glyph-name="Ograve" unicode="&#xd2;" horiz-adv-x="698" 
d="M376 727c169 0 293 -139 293 -350c0 -112 -31 -193 -107 -272c-76 -80 -167 -121 -245 -121c-71 0 -152 34 -204 87c-60 61 -88 144 -88 251c0 135 41 233 139 314c73 61 152 91 212 91zM529 119c28 52 46 104 46 187c0 200 -101 330 -269 330c-52 0 -89 -10 -127 -31
c-46 -66 -67 -128 -67 -216c0 -202 146 -315 283 -315c54 0 97 15 134 45zM360 767l-143 132l134 -9l64 -123h-55z" />
    <glyph glyph-name="Otilde" unicode="&#xd5;" horiz-adv-x="698" 
d="M376 727c169 0 293 -139 293 -350c0 -112 -31 -193 -107 -272c-76 -80 -167 -121 -245 -121c-71 0 -152 34 -204 87c-60 61 -88 144 -88 251c0 135 41 233 139 314c73 61 152 91 212 91zM529 119c28 52 46 104 46 187c0 200 -101 330 -269 330c-52 0 -89 -10 -127 -31
c-46 -66 -67 -128 -67 -216c0 -202 146 -315 283 -315c54 0 97 15 134 45zM217 767h-67c33 79 90 118 136 118c23 0 59 -15 87 -32c35 -21 59 -36 65 -36c15 0 28 27 40 71l69 -10c-31 -70 -89 -111 -141 -111c-34 0 -73 23 -128 55c-8 5 -21 11 -27 11
c-18 0 -26 -30 -34 -66z" />
    <glyph glyph-name="Scaron" unicode="&#x160;" horiz-adv-x="448" 
d="M41 87l96 63c30 -55 69 -89 130 -89c10 0 24 2 33 3c16 29 24 58 24 96c0 60 -28 100 -64 116c-48 21 -95 45 -140 69c-37 20 -69 79 -69 142c0 124 109 239 225 239c61 0 106 -31 141 -88l-91 -61c-34 50 -79 75 -133 75c-16 0 -28 -4 -37 -7c-18 -27 -26 -59 -26 -85
c0 -86 63 -112 201 -183c58 -30 80 -80 80 -148c0 -151 -130 -247 -230 -247c-59 0 -115 37 -140 105zM354 893l-88 -117l-139 -10l-34 127h49l69 -76l94 76h49z" />
    <glyph glyph-name="Uacute" unicode="&#xda;" horiz-adv-x="625" 
d="M53 217v493c30 0 72 3 114 7c-1 -63 -2 -127 -2 -190c0 -198 1 -312 6 -342c13 -77 67 -117 157 -117c51 0 81 12 110 39c17 64 18 125 18 191c0 57 -2 195 -4 413c36 1 75 3 112 5c-2 -125 -3 -252 -3 -377c0 -188 2 -303 6 -340c-37 -1 -76 -2 -114 -4c1 29 2 55 2 69
v14c-112 -95 -151 -93 -192 -93c-139 0 -210 93 -210 232zM248 767l61 123l133 9l-139 -132h-55z" />
    <glyph glyph-name="Ucircumflex" unicode="&#xdb;" horiz-adv-x="625" 
d="M53 217v493c30 0 72 3 114 7c-1 -63 -2 -127 -2 -190c0 -198 1 -312 6 -342c13 -77 67 -117 157 -117c51 0 81 12 110 39c17 64 18 125 18 191c0 57 -2 195 -4 413c36 1 75 3 112 5c-2 -125 -3 -252 -3 -377c0 -188 2 -303 6 -340c-37 -1 -76 -2 -114 -4c1 29 2 55 2 69
v14c-112 -95 -151 -93 -192 -93c-139 0 -210 93 -210 232zM182 766l88 117l139 10l34 -127h-49l-69 76l-94 -76h-49z" />
    <glyph glyph-name="Udieresis" unicode="&#xdc;" horiz-adv-x="625" 
d="M53 217v493c30 0 72 3 114 7c-1 -63 -2 -127 -2 -190c0 -198 1 -312 6 -342c13 -77 67 -117 157 -117c51 0 81 12 110 39c17 64 18 125 18 191c0 57 -2 195 -4 413c36 1 75 3 112 5c-2 -125 -3 -252 -3 -377c0 -188 2 -303 6 -340c-37 -1 -76 -2 -114 -4c1 29 2 55 2 69
v14c-112 -95 -151 -93 -192 -93c-139 0 -210 93 -210 232zM209 894l65 -63c-25 -21 -46 -44 -65 -65c-15 19 -48 50 -64 62c35 30 50 53 64 66zM416 894c7 -6 27 -28 65 -63c-27 -22 -48 -46 -65 -65c-15 18 -47 49 -64 62c35 30 50 53 64 66z" />
    <glyph glyph-name="Ugrave" unicode="&#xd9;" horiz-adv-x="625" 
d="M53 217v493c30 0 72 3 114 7c-1 -63 -2 -127 -2 -190c0 -198 1 -312 6 -342c13 -77 67 -117 157 -117c51 0 81 12 110 39c17 64 18 125 18 191c0 57 -2 195 -4 413c36 1 75 3 112 5c-2 -125 -3 -252 -3 -377c0 -188 2 -303 6 -340c-37 -1 -76 -2 -114 -4c1 29 2 55 2 69
v14c-112 -95 -151 -93 -192 -93c-139 0 -210 93 -210 232zM324 767l-143 132l134 -9l64 -123h-55z" />
    <glyph glyph-name="Yacute" unicode="&#xdd;" horiz-adv-x="521" 
d="M210 291l-188 414c27 1 77 9 118 19l153 -356c24 44 75 160 144 346h6c17 0 41 2 61 4l-181 -425c-1 -20 -1 -43 -1 -62c0 -73 0 -150 3 -230l-121 -7c4 123 4 222 6 297zM196 767l61 123l133 9l-139 -132h-55z" />
    <glyph glyph-name="Ydieresis" unicode="&#x178;" horiz-adv-x="521" 
d="M210 291l-188 414c27 1 77 9 118 19l153 -356c24 44 75 160 144 346h6c17 0 41 2 61 4l-181 -425c-1 -20 -1 -43 -1 -62c0 -73 0 -150 3 -230l-121 -7c4 123 4 222 6 297zM157 894l65 -63c-25 -21 -46 -44 -65 -65c-15 19 -48 50 -64 62c35 30 50 53 64 66zM364 894
c7 -6 27 -28 65 -63c-27 -22 -48 -46 -65 -65c-15 18 -47 49 -64 62c35 30 50 53 64 66z" />
    <glyph glyph-name="Zcaron" unicode="&#x17d;" horiz-adv-x="521" 
d="M45 618l30 95l402 -7l-316 -617h329l-23 -96c-90 3 -209 5 -353 5c-34 0 -54 -1 -88 -1c92 168 203 373 322 621h-303zM391 893l-88 -117l-139 -10l-34 127h49l69 -76l94 76h49z" />
    <glyph glyph-name="aacute" unicode="&#xe1;" horiz-adv-x="448" 
d="M59 365l-12 13l87 92c30 8 61 12 91 12c63 0 119 -24 145 -56c20 -24 27 -60 27 -101v-325c-25 -5 -64 -2 -104 -5c2 18 0 37 3 55l-121 -64c-4 -1 -15 -2 -19 -2c-49 0 -121 45 -121 130c0 94 90 166 202 166c19 0 42 -3 60 -5v16c0 71 -14 117 -121 117
c-43 0 -87 -14 -117 -43zM297 77v133c-28 11 -55 19 -99 19c-18 0 -35 0 -60 -10c-10 -13 -16 -27 -16 -48c0 -57 47 -107 106 -107c22 0 47 5 69 13zM159 542l61 123l133 9l-139 -132h-55z" />
    <glyph glyph-name="acircumflex" unicode="&#xe2;" horiz-adv-x="448" 
d="M59 365l-12 13l87 92c30 8 61 12 91 12c63 0 119 -24 145 -56c20 -24 27 -60 27 -101v-325c-25 -5 -64 -2 -104 -5c2 18 0 37 3 55l-121 -64c-4 -1 -15 -2 -19 -2c-49 0 -121 45 -121 130c0 94 90 166 202 166c19 0 42 -3 60 -5v16c0 71 -14 117 -121 117
c-43 0 -87 -14 -117 -43zM297 77v133c-28 11 -55 19 -99 19c-18 0 -35 0 -60 -10c-10 -13 -16 -27 -16 -48c0 -57 47 -107 106 -107c22 0 47 5 69 13zM93 541l88 117l139 10l34 -127h-49l-69 76l-94 -76h-49z" />
    <glyph glyph-name="adieresis" unicode="&#xe4;" horiz-adv-x="448" 
d="M59 365l-12 13l87 92c30 8 61 12 91 12c63 0 119 -24 145 -56c20 -24 27 -60 27 -101v-325c-25 -5 -64 -2 -104 -5c2 18 0 37 3 55l-121 -64c-4 -1 -15 -2 -19 -2c-49 0 -121 45 -121 130c0 94 90 166 202 166c19 0 42 -3 60 -5v16c0 71 -14 117 -121 117
c-43 0 -87 -14 -117 -43zM297 77v133c-28 11 -55 19 -99 19c-18 0 -35 0 -60 -10c-10 -13 -16 -27 -16 -48c0 -57 47 -107 106 -107c22 0 47 5 69 13zM120 669l65 -63c-25 -21 -46 -44 -65 -65c-15 19 -48 50 -64 62c35 30 50 53 64 66zM327 669c7 -6 27 -28 65 -63
c-27 -22 -48 -46 -65 -65c-15 18 -47 49 -64 62c35 30 50 53 64 66z" />
    <glyph glyph-name="agrave" unicode="&#xe0;" horiz-adv-x="448" 
d="M59 365l-12 13l87 92c30 8 61 12 91 12c63 0 119 -24 145 -56c20 -24 27 -60 27 -101v-325c-25 -5 -64 -2 -104 -5c2 18 0 37 3 55l-121 -64c-4 -1 -15 -2 -19 -2c-49 0 -121 45 -121 130c0 94 90 166 202 166c19 0 42 -3 60 -5v16c0 71 -14 117 -121 117
c-43 0 -87 -14 -117 -43zM297 77v133c-28 11 -55 19 -99 19c-18 0 -35 0 -60 -10c-10 -13 -16 -27 -16 -48c0 -57 47 -107 106 -107c22 0 47 5 69 13zM235 542l-143 132l134 -9l64 -123h-55z" />
    <glyph glyph-name="aring" unicode="&#xe5;" horiz-adv-x="448" 
d="M59 365l-12 13l87 92c30 8 61 12 91 12c63 0 119 -24 145 -56c20 -24 27 -60 27 -101v-325c-25 -5 -64 -2 -104 -5c2 18 0 37 3 55l-121 -64c-4 -1 -15 -2 -19 -2c-49 0 -121 45 -121 130c0 94 90 166 202 166c19 0 42 -3 60 -5v16c0 71 -14 117 -121 117
c-43 0 -87 -14 -117 -43zM297 77v133c-28 11 -55 19 -99 19c-18 0 -35 0 -60 -10c-10 -13 -16 -27 -16 -48c0 -57 47 -107 106 -107c22 0 47 5 69 13zM237 705c35 0 61 -29 61 -69c0 -51 -40 -96 -89 -96c-37 0 -60 35 -60 68c0 47 38 97 88 97zM201 668
c-6 -11 -14 -26 -14 -44c0 -27 23 -47 47 -47c8 0 16 3 20 5c2 8 5 22 5 35c0 31 -22 52 -45 52c-5 0 -8 0 -13 -1z" />
    <glyph glyph-name="atilde" unicode="&#xe3;" horiz-adv-x="448" 
d="M59 365l-12 13l87 92c30 8 61 12 91 12c63 0 119 -24 145 -56c20 -24 27 -60 27 -101v-325c-25 -5 -64 -2 -104 -5c2 18 0 37 3 55l-121 -64c-4 -1 -15 -2 -19 -2c-49 0 -121 45 -121 130c0 94 90 166 202 166c19 0 42 -3 60 -5v16c0 71 -14 117 -121 117
c-43 0 -87 -14 -117 -43zM297 77v133c-28 11 -55 19 -99 19c-18 0 -35 0 -60 -10c-10 -13 -16 -27 -16 -48c0 -57 47 -107 106 -107c22 0 47 5 69 13zM92 542h-67c33 79 90 118 136 118c23 0 59 -15 87 -32c35 -21 59 -36 65 -36c15 0 28 27 40 71l69 -10
c-31 -70 -89 -111 -141 -111c-34 0 -73 23 -128 55c-8 5 -21 11 -27 11c-18 0 -26 -30 -34 -66z" />
    <glyph glyph-name="ccedilla" unicode="&#xe7;" horiz-adv-x="406" 
d="M395 61l-91 -58c-17 -11 -33 -16 -51 -18l-14 -49h13c55 0 83 -23 83 -65c0 -61 -59 -108 -178 -107v30c89 5 123 42 123 79c0 15 -9 22 -24 22c-19 0 -42 -6 -62 -11l29 100c-119 9 -193 98 -193 225c0 103 56 191 81 205l110 59c14 7 25 9 38 9c68 0 109 -40 134 -110
l-89 -47c-24 61 -70 89 -109 89c-15 0 -26 -5 -34 -9c-21 -36 -34 -84 -34 -137c0 -47 5 -87 28 -126c31 -53 91 -85 158 -85c36 0 58 10 74 17z" />
    <glyph glyph-name="eacute" unicode="&#xe9;" horiz-adv-x="406" 
d="M396 303v-24l-100 -48l-170 2c9 -112 93 -178 184 -178c28 0 58 5 83 17l7 -15l-124 -69c-14 -8 -25 -7 -41 -7c-127 0 -204 90 -204 228c0 85 33 178 77 203c79 44 107 66 146 66c72 0 142 -63 142 -175zM122 279h173c-1 90 -45 132 -107 132c-15 0 -27 -3 -35 -6
c-20 -39 -31 -88 -31 -118v-8zM138 542l61 123l133 9l-139 -132h-55z" />
    <glyph glyph-name="ecircumflex" unicode="&#xea;" horiz-adv-x="406" 
d="M396 303v-24l-100 -48l-170 2c9 -112 93 -178 184 -178c28 0 58 5 83 17l7 -15l-124 -69c-14 -8 -25 -7 -41 -7c-127 0 -204 90 -204 228c0 85 33 178 77 203c79 44 107 66 146 66c72 0 142 -63 142 -175zM122 279h173c-1 90 -45 132 -107 132c-15 0 -27 -3 -35 -6
c-20 -39 -31 -88 -31 -118v-8zM72 541l88 117l139 10l34 -127h-49l-69 76l-94 -76h-49z" />
    <glyph glyph-name="edieresis" unicode="&#xeb;" horiz-adv-x="406" 
d="M396 303v-24l-100 -48l-170 2c9 -112 93 -178 184 -178c28 0 58 5 83 17l7 -15l-124 -69c-14 -8 -25 -7 -41 -7c-127 0 -204 90 -204 228c0 85 33 178 77 203c79 44 107 66 146 66c72 0 142 -63 142 -175zM122 279h173c-1 90 -45 132 -107 132c-15 0 -27 -3 -35 -6
c-20 -39 -31 -88 -31 -118v-8zM99 669l65 -63c-25 -21 -46 -44 -65 -65c-15 19 -48 50 -64 62c35 30 50 53 64 66zM306 669c7 -6 27 -28 65 -63c-27 -22 -48 -46 -65 -65c-15 18 -47 49 -64 62c35 30 50 53 64 66z" />
    <glyph glyph-name="egrave" unicode="&#xe8;" horiz-adv-x="406" 
d="M396 303v-24l-100 -48l-170 2c9 -112 93 -178 184 -178c28 0 58 5 83 17l7 -15l-124 -69c-14 -8 -25 -7 -41 -7c-127 0 -204 90 -204 228c0 85 33 178 77 203c79 44 107 66 146 66c72 0 142 -63 142 -175zM122 279h173c-1 90 -45 132 -107 132c-15 0 -27 -3 -35 -6
c-20 -39 -31 -88 -31 -118v-8zM214 542l-143 132l134 -9l64 -123h-55z" />
    <glyph glyph-name="iacute" unicode="&#xed;" horiz-adv-x="219" 
d="M63 0v470h12c29 0 60 3 87 2l-3 -472h-96zM45 542l61 123l133 9l-139 -132h-55z" />
    <glyph glyph-name="icircumflex" unicode="&#xee;" horiz-adv-x="219" 
d="M63 0v470h12c29 0 60 3 87 2l-3 -472h-96zM-21 541l88 117l139 10l34 -127h-49l-69 76l-94 -76h-49z" />
    <glyph glyph-name="idieresis" unicode="&#xef;" horiz-adv-x="219" 
d="M63 0v470h12c29 0 60 3 87 2l-3 -472h-96zM6 669l65 -63c-25 -21 -46 -44 -65 -65c-15 19 -48 50 -64 62c35 30 50 53 64 66zM213 669c7 -6 27 -28 65 -63c-27 -22 -48 -46 -65 -65c-15 18 -47 49 -64 62c35 30 50 53 64 66z" />
    <glyph glyph-name="igrave" unicode="&#xec;" horiz-adv-x="219" 
d="M63 0v470h12c29 0 60 3 87 2l-3 -472h-96zM121 542l-143 132l134 -9l64 -123h-55z" />
    <glyph glyph-name="ntilde" unicode="&#xf1;" 
d="M154 469v-67c42 27 81 55 127 76h15c87 0 137 -44 137 -136v-342h-100v311c0 60 -38 90 -102 90c-19 0 -30 -4 -40 -8c-25 -35 -37 -78 -36 -124l3 -269h-104c1 151 3 266 3 343c0 39 -1 82 -3 126h100zM108 542h-67c33 79 90 118 136 118c23 0 59 -15 87 -32
c35 -21 59 -36 65 -36c15 0 28 27 40 71l69 -10c-31 -70 -89 -111 -141 -111c-34 0 -73 23 -128 55c-8 5 -21 11 -27 11c-18 0 -26 -30 -34 -66z" />
    <glyph glyph-name="oacute" unicode="&#xf3;" 
d="M403 93l-114 -93c-20 -10 -43 -17 -69 -17c-117 0 -191 90 -191 213c0 77 27 130 51 182l116 92c16 8 36 15 71 15c118 0 186 -88 186 -194c0 -54 -15 -127 -50 -198zM339 81c13 35 23 91 23 141c0 120 -59 189 -145 189c-33 0 -47 -8 -61 -18c-24 -38 -36 -81 -36 -132
c0 -126 67 -192 165 -192c26 0 42 7 54 12zM175 542l61 123l133 9l-139 -132h-55z" />
    <glyph glyph-name="ocircumflex" unicode="&#xf4;" 
d="M403 93l-114 -93c-20 -10 -43 -17 -69 -17c-117 0 -191 90 -191 213c0 77 27 130 51 182l116 92c16 8 36 15 71 15c118 0 186 -88 186 -194c0 -54 -15 -127 -50 -198zM339 81c13 35 23 91 23 141c0 120 -59 189 -145 189c-33 0 -47 -8 -61 -18c-24 -38 -36 -81 -36 -132
c0 -126 67 -192 165 -192c26 0 42 7 54 12zM109 541l88 117l139 10l34 -127h-49l-69 76l-94 -76h-49z" />
    <glyph glyph-name="odieresis" unicode="&#xf6;" 
d="M403 93l-114 -93c-20 -10 -43 -17 -69 -17c-117 0 -191 90 -191 213c0 77 27 130 51 182l116 92c16 8 36 15 71 15c118 0 186 -88 186 -194c0 -54 -15 -127 -50 -198zM339 81c13 35 23 91 23 141c0 120 -59 189 -145 189c-33 0 -47 -8 -61 -18c-24 -38 -36 -81 -36 -132
c0 -126 67 -192 165 -192c26 0 42 7 54 12zM136 669l65 -63c-25 -21 -46 -44 -65 -65c-15 19 -48 50 -64 62c35 30 50 53 64 66zM343 669c7 -6 27 -28 65 -63c-27 -22 -48 -46 -65 -65c-15 18 -47 49 -64 62c35 30 50 53 64 66z" />
    <glyph glyph-name="ograve" unicode="&#xf2;" 
d="M403 93l-114 -93c-20 -10 -43 -17 -69 -17c-117 0 -191 90 -191 213c0 77 27 130 51 182l116 92c16 8 36 15 71 15c118 0 186 -88 186 -194c0 -54 -15 -127 -50 -198zM339 81c13 35 23 91 23 141c0 120 -59 189 -145 189c-33 0 -47 -8 -61 -18c-24 -38 -36 -81 -36 -132
c0 -126 67 -192 165 -192c26 0 42 7 54 12zM251 542l-143 132l134 -9l64 -123h-55z" />
    <glyph glyph-name="otilde" unicode="&#xf5;" 
d="M403 93l-114 -93c-20 -10 -43 -17 -69 -17c-117 0 -191 90 -191 213c0 77 27 130 51 182l116 92c16 8 36 15 71 15c118 0 186 -88 186 -194c0 -54 -15 -127 -50 -198zM339 81c13 35 23 91 23 141c0 120 -59 189 -145 189c-33 0 -47 -8 -61 -18c-24 -38 -36 -81 -36 -132
c0 -126 67 -192 165 -192c26 0 42 7 54 12zM108 542h-67c33 79 90 118 136 118c23 0 59 -15 87 -32c35 -21 59 -36 65 -36c15 0 28 27 40 71l69 -10c-31 -70 -89 -111 -141 -111c-34 0 -73 23 -128 55c-8 5 -21 11 -27 11c-18 0 -26 -30 -34 -66z" />
    <glyph glyph-name="scaron" unicode="&#x161;" horiz-adv-x="333" 
d="M23 91l87 41c25 -57 53 -87 96 -92c16 12 24 38 24 61c0 36 -26 62 -82 80c-78 25 -118 70 -118 137c0 34 14 64 26 77c10 11 56 46 127 77c68 -2 101 -26 136 -102l-85 -42c-21 46 -44 82 -90 82c-7 0 -19 -2 -24 -3c-7 -14 -12 -29 -12 -49c0 -30 17 -50 38 -59
c121 -55 168 -76 168 -157c0 -49 -28 -92 -58 -109c-63 -35 -86 -52 -102 -52c-39 0 -113 32 -131 110zM297 668l-88 -117l-139 -10l-34 127h49l69 -76l94 76h49z" />
    <glyph glyph-name="uacute" unicode="&#xfa;" 
d="M330 0v2c0 6 -1 21 -1 29c0 9 1 24 3 35l-128 -74c-6 0 -10 -1 -16 -1c-87 0 -136 49 -136 120v361h100v-306c0 -66 35 -98 107 -98c19 0 33 2 44 20c11 19 24 68 24 131v252c10 0 16 1 26 1c26 0 54 0 78 -2c-2 -88 -3 -178 -3 -266c0 -90 0 -160 2 -204h-100zM175 542
l61 123l133 9l-139 -132h-55z" />
    <glyph glyph-name="ucircumflex" unicode="&#xfb;" 
d="M330 0v2c0 6 -1 21 -1 29c0 9 1 24 3 35l-128 -74c-6 0 -10 -1 -16 -1c-87 0 -136 49 -136 120v361h100v-306c0 -66 35 -98 107 -98c19 0 33 2 44 20c11 19 24 68 24 131v252c10 0 16 1 26 1c26 0 54 0 78 -2c-2 -88 -3 -178 -3 -266c0 -90 0 -160 2 -204h-100zM109 541
l88 117l139 10l34 -127h-49l-69 76l-94 -76h-49z" />
    <glyph glyph-name="udieresis" unicode="&#xfc;" 
d="M330 0v2c0 6 -1 21 -1 29c0 9 1 24 3 35l-128 -74c-6 0 -10 -1 -16 -1c-87 0 -136 49 -136 120v361h100v-306c0 -66 35 -98 107 -98c19 0 33 2 44 20c11 19 24 68 24 131v252c10 0 16 1 26 1c26 0 54 0 78 -2c-2 -88 -3 -178 -3 -266c0 -90 0 -160 2 -204h-100zM136 669
l65 -63c-25 -21 -46 -44 -65 -65c-15 19 -48 50 -64 62c35 30 50 53 64 66zM343 669c7 -6 27 -28 65 -63c-27 -22 -48 -46 -65 -65c-15 18 -47 49 -64 62c35 30 50 53 64 66z" />
    <glyph glyph-name="ugrave" unicode="&#xf9;" 
d="M330 0v2c0 6 -1 21 -1 29c0 9 1 24 3 35l-128 -74c-6 0 -10 -1 -16 -1c-87 0 -136 49 -136 120v361h100v-306c0 -66 35 -98 107 -98c19 0 33 2 44 20c11 19 24 68 24 131v252c10 0 16 1 26 1c26 0 54 0 78 -2c-2 -88 -3 -178 -3 -266c0 -90 0 -160 2 -204h-100zM251 542
l-143 132l134 -9l64 -123h-55z" />
    <glyph glyph-name="yacute" unicode="&#xfd;" 
d="M226 -14l-197 479l106 14c56 -152 105 -272 142 -361l125 346l67 7c-74 -182 -166 -415 -270 -705l-76 -8c22 43 58 121 103 228zM175 542l61 123l133 9l-139 -132h-55z" />
    <glyph glyph-name="ydieresis" unicode="&#xff;" 
d="M226 -14l-197 479l106 14c56 -152 105 -272 142 -361l125 346l67 7c-74 -182 -166 -415 -270 -705l-76 -8c22 43 58 121 103 228zM136 669l65 -63c-25 -21 -46 -44 -65 -65c-15 19 -48 50 -64 62c35 30 50 53 64 66zM343 669c7 -6 27 -28 65 -63c-27 -22 -48 -46 -65 -65
c-15 18 -47 49 -64 62c35 30 50 53 64 66z" />
    <glyph glyph-name="zcaron" unicode="&#x17e;" horiz-adv-x="406" 
d="M54 385l29 77l304 3l-252 -388h64c114 0 185 3 195 4l-23 -81h-353l260 387c-18 1 -38 1 -53 1c-57 0 -115 -1 -171 -3zM380 668l-88 -117l-139 -10l-34 127h49l69 -76l94 76h49z" />
    <glyph glyph-name="uni00A0" unicode="&#xa0;" horiz-adv-x="250" 
 />
    <glyph glyph-name="uni00AD" unicode="&#xad;" horiz-adv-x="260" 
d="M41 192l42 90h143l-42 -90h-143z" />
    <glyph glyph-name="uni02C9" unicode="&#x2c9;" horiz-adv-x="333" 
d="M-8 540v74h350v-74h-350z" />
    <glyph glyph-name="uni03A9" unicode="&#x3a9;" horiz-adv-x="710" 
d="M659 0h-238v83c55 52 131 138 131 291c0 144 -68 249 -195 249c-121 0 -200 -103 -200 -250c0 -150 73 -237 132 -290v-83h-239v83h150c-64 51 -151 143 -151 309c0 184 126 320 310 320c194 0 301 -134 301 -317c0 -151 -77 -252 -151 -312h150v-83z" />
    <glyph glyph-name="uni03BC" unicode="&#x3bc;" horiz-adv-x="552" 
d="M407 0v61c-28 -42 -60 -73 -132 -73c-65 0 -96 31 -122 64v-251h-87v671h87v-206c0 -61 4 -108 17 -134c20 -41 58 -65 101 -65c44 0 82 21 105 57c18 28 22 76 22 140v208h87v-472h-78z" />
    <glyph glyph-name="pi" unicode="&#x3c0;" horiz-adv-x="653" 
d="M597 76l18 -66c-19 -12 -45 -18 -79 -18c-95 0 -130 66 -130 144v288h-142v-281c0 -64 -6 -109 -16 -143h-104c12 41 18 94 18 150v274c-29 0 -72 -11 -97 -23c-10 22 -19 45 -28 67c28 16 82 32 150 32h424v-76h-103v-276c0 -48 15 -80 56 -80c13 0 23 4 33 8z" />
    <glyph glyph-name="Euro" unicode="&#x20ac;" horiz-adv-x="602" 
d="M524 331l-24 -40h-325c31 -127 127 -208 257 -208c53 0 105 16 144 49l12 -20c-29 -31 -61 -55 -93 -76c-48 -32 -79 -50 -129 -50c-153 0 -281 123 -296 305h-63c10 11 18 20 30 40h32c0 19 1 37 4 55h-66c10 11 18 20 30 40h44c49 194 234 301 333 301
c61 0 112 -21 161 -52l-70 -85c-44 27 -87 42 -152 42c-61 0 -105 -11 -140 -48c-27 -28 -43 -89 -47 -158h393l-24 -40h-371v-1c0 -19 1 -37 4 -54h356z" />
    <glyph glyph-name="litre" unicode="&#x2113;" horiz-adv-x="493" 
d="M423 49c-28 -28 -75 -63 -134 -63c-41 0 -69 12 -91 34c-26 27 -39 75 -39 125v93c-19 -20 -37 -40 -56 -59l-34 46l90 95v220c0 125 54 188 135 188c79 0 105 -64 105 -113c0 -97 -48 -178 -114 -260c-10 -12 -25 -31 -33 -40v-163c0 -68 26 -93 61 -93
c32 0 59 24 80 45zM337 603c0 27 -10 52 -36 52c-30 0 -49 -29 -49 -103v-149c6 7 13 16 18 24c40 56 67 123 67 176z" />
    <glyph glyph-name="Omega" unicode="&#x2126;" horiz-adv-x="710" 
d="M659 0h-238v83c55 52 131 138 131 291c0 144 -68 249 -195 249c-121 0 -200 -103 -200 -250c0 -150 73 -237 132 -290v-83h-239v83h150c-64 51 -151 143 -151 309c0 184 126 320 310 320c194 0 301 -134 301 -317c0 -151 -77 -252 -151 -312h150v-83z" />
    <glyph glyph-name="estimated" unicode="&#x212e;" horiz-adv-x="661" 
d="M613 288h-443v-198c42 -42 95 -65 157 -65c99 0 163 50 212 131l36 -22c-60 -89 -128 -146 -248 -146c-172 0 -280 134 -280 300s106 300 281 300c178 0 280 -133 285 -300zM486 325v160c-42 42 -98 66 -159 66c-62 0 -115 -22 -157 -65v-161h316z" />
    <glyph glyph-name="partialdiff" unicode="&#x2202;" horiz-adv-x="576" 
d="M535 476c0 -60 -8 -126 -24 -191c-40 -150 -133 -296 -281 -296c-112 0 -189 79 -189 194c0 199 134 313 260 313c65 0 111 -33 129 -67h2c2 20 4 39 4 64c0 104 -50 159 -132 159c-32 0 -68 -11 -95 -27l-23 69c28 18 79 35 132 35c131 0 217 -89 217 -253zM420 345
c-14 45 -49 78 -105 78c-90 0 -173 -108 -173 -245c0 -67 35 -110 90 -110c90 0 160 121 188 277z" />
    <glyph glyph-name="Delta" unicode="&#x2206;" horiz-adv-x="608" 
d="M597 0h-586v46l227 654h135l224 -654v-46zM476 84l-158 467c-8 26 -12 46 -15 59h-4c-3 -12 -8 -35 -14 -57l-158 -469h349z" />
    <glyph glyph-name="product" unicode="&#x220f;" horiz-adv-x="719" 
d="M639 -230h-104v841h-352v-841h-103v930h559v-930z" />
    <glyph glyph-name="summation" unicode="&#x2211;" horiz-adv-x="631" 
d="M595 -230h-560v51l307 418l-286 404v57h516v-83h-389l266 -376l-283 -388h429v-83z" />
    <glyph glyph-name="uni2215" unicode="&#x2215;" horiz-adv-x="135" 
d="M-162 -13l413 739h47l-413 -739h-47z" />
    <glyph glyph-name="uni2219" unicode="&#x2219;" horiz-adv-x="260" 
d="M130 426l72 -69c-22 -18 -46 -43 -71 -69c-25 27 -57 54 -73 66c16 11 44 39 72 72z" />
    <glyph glyph-name="radical" unicode="&#x221a;" horiz-adv-x="513" 
d="M498 729l-184 -741h-83l-130 325c-18 -12 -37 -23 -55 -34l-32 54l132 84l125 -316l155 628h72z" />
    <glyph glyph-name="infinity" unicode="&#x221e;" horiz-adv-x="783" 
d="M739 294c0 -96 -68 -172 -167 -172c-76 0 -140 46 -180 108h-2c-42 -61 -103 -108 -177 -108c-94 0 -169 65 -169 169s75 169 167 169c83 0 142 -51 179 -107h2c31 47 92 107 177 107c97 0 170 -68 170 -166zM658 293c0 52 -31 95 -94 95c-57 0 -97 -39 -134 -96
c34 -61 82 -98 134 -98c64 0 94 47 94 99zM352 292c-34 56 -82 97 -134 97c-62 0 -93 -46 -93 -99c0 -55 39 -96 94 -96c56 0 101 46 133 98z" />
    <glyph glyph-name="integral" unicode="&#x222b;" horiz-adv-x="491" 
d="M415 662c-9 4 -27 8 -43 8c-50 0 -76 -32 -76 -93v-626c0 -109 -55 -181 -164 -181c-26 0 -62 6 -77 13l18 74c12 -4 27 -8 45 -8c50 0 76 33 76 93v626c0 108 54 181 165 181c29 0 64 -7 77 -14z" />
    <glyph glyph-name="approxequal" unicode="&#x2248;" horiz-adv-x="667" 
d="M575 421c-33 -47 -75 -85 -140 -85c-39 0 -77 14 -110 34c-28 17 -61 34 -95 34c-39 0 -73 -32 -96 -68l-43 47c33 46 72 85 139 85c42 0 80 -15 109 -33c33 -20 64 -35 96 -35c39 0 72 30 97 67zM575 205c-33 -47 -75 -84 -140 -84c-39 0 -77 13 -110 33
c-28 17 -61 34 -95 34c-39 0 -73 -31 -96 -67l-43 47c33 46 72 84 139 84c42 0 80 -15 109 -33c33 -20 64 -34 96 -34c39 0 72 30 97 67z" />
    <glyph glyph-name="notequal" unicode="&#x2260;" horiz-adv-x="667" 
d="M558 154h-262l-64 -132h-69l65 132h-119v64h151l74 153h-225v64h257l67 137h68l-67 -137h124v-64h-156l-74 -153h230v-64z" />
    <glyph glyph-name="lessequal" unicode="&#x2264;" horiz-adv-x="667" 
d="M558 0h-449v64h449v-64zM558 133l-449 201v45l449 201v-70l-348 -152v-2l348 -153v-70z" />
    <glyph glyph-name="greaterequal" unicode="&#x2265;" horiz-adv-x="667" 
d="M558 0h-449v64h449v-64zM558 334l-449 -200v69l349 152v3l-349 153v69l449 -201v-45z" />
    <glyph glyph-name="lozenge" unicode="&#x25ca;" horiz-adv-x="559" 
d="M505 350l-201 -350h-50l-201 349l201 351h50zM426 350l-147 257l-147 -257l147 -257z" />
    </font>
</defs>
</svg>
